<?xml version="1.0" encoding="UTF-8"?>
<svg xmlns="http://www.w3.org/2000/svg" version="1.1" viewBox="0 0 534.1 557.3">
  <!-- Generator: Adobe Illustrator 28.7.0, SVG Export Plug-In . SVG Version: 1.2.0 Build 136)  -->
     <style>
        path {
            fill: black;
        }
        @media (prefers-color-scheme: dark) {
            path { fill: white; }
        }
    </style>
  <g>
    <g id="Vector_layer">
      <path d="M278.2,178.7c-4.4-6.7-10.2-14.1-12.4-21.5,3.3,5.8,11.3,16.6,12.4,21.5Z"/>
      <path d="M271.3,166.9c-3.7-9.9-15.3-27.2-12.7-34.7,3.4,11.4,12.4,20.3,19.6,28.5-7.5-3.6-13.9-13.4-17.7-21.2,1.4,8.4,9.3,20.9,10.8,27.4h0Z"/>
      <path d="M261.3,168c-5.2-6-20.5-23.8-7.1-9.8-1.1-1.4-5.6-8.9-2.6-8.1.6,6.5,10.9,13.2,9.7,17.9Z"/>
      <path d="M274.6,176.6c-8.2-4.2-22.5-23.9-20.4-25.4-.2-1.4-3.8-6.9-1-6.1,2.6,12.4,17.1,24.5,21.5,31.5ZM260.5,162.5c.5.7,1.2,2.2,1.5,2.5,0,0,0,0,0,0-.2-1.3-1.3-2.1-1.9-3.2.1.2.2.4.4.6h0Z"/>
      <path d="M272.6,183.9c-5.5-3.1-11.8-10.5-12.9-15.8,2.6,5.1,13.6,11.9,12.9,15.8ZM272.4,182.8c-2.8-2.7-7.5-7.2-10.4-11.3,2.7,4.4,5.8,8.7,10.4,11.3Z"/>
      <path d="M262.3,178.9c-12.5-8.8-30.3-28.3-28.4-41.8,5.8,17.2,15.2,32.7,31.7,40.9-8.5-2-10.4-9.7-3.3.9h0Z"/>
      <path d="M251.2,181.5c-7.2-4.3-17.4-7.4-22.5-14.1,6.8,2.9,13,9.8,20.9,11.6-1.9-8.3-6.2-17.5-8.1-24.7,2.6,8.2,10.4,20.7,9.7,27.2h0Z"/>
      <path d="M235,171.6c-8.7-7.5-17.7-14.9-25.5-23.4,3.9,7.7,11.1,14.7,14.3,22-9.1-8.1-14-22-22.7-31.2,8.2,6.3,24.5,25,33.9,32.6h0Z"/>
      <path d="M230.8,177.7c-3.3-5.3-11-11.1-12.3-16,3,5.8,12.4,12.5,12.3,16Z"/>
      <path d="M233.8,179c-3.6-4.2-7.5-9-10.4-13.4,2.9,2.3,11,11.1,10.4,13.4Z"/>
      <path d="M237.6,190.5c-5.9-5-14.8-7.5-20.1-12.1,8.8,1.7,22.7,14.7,8.5.3-1.6-5.8,11.3,4.3,13,6.9-2.9.2-8.2-8.2-13.2-8.6,2,4.9,11.5,9.6,11.9,13.4h0Z"/>
      <path d="M273,161.3c-.1-.5,1.1-4.5,1.5-3.4-.4,1-.6,2.9-1.5,3.4Z"/>
      <path d="M283.7,176.3c-6.6-2.8-23.4-33-17-25.5,4.3,6.9,11.1,12.4,17.1,17.3-5.9-2.6-10.8-8.7-15.3-13.6,2,7.6,16.2,17.8,15.2,21.8h0ZM275.8,167.8c-1.5-2.2-2.8-4.5-4.3-6.6,1.2,2.4,2.6,4.7,4.3,6.6Z"/>
      <path d="M299.4,176.4c-5-5.1-20-12-20.2-16.4,6.4,5,15.8,9.6,25,8.5-2.2,2.7-9.6.2-13.1-.6,1,.5,11.8,8.1,8.3,8.5Z"/>
      <path d="M296.9,167.9c-6.4-1.2,8.9-.3,11.9-2-1.1,2-8.7,1.9-11.9,2Z"/>
      <path d="M252.5,188.1c-7.8-.9-34.3-29.3-16.3-13.2-6-5.8,17.2,12.6,16.3,13.2Z"/>
      <path d="M253.5,183.5c-9.2-2.4-16.5-7.3-3-1.4-9.3-4.4,3.8-.5,3,1.4Z"/>
      <path d="M230.2,187.5c-7.4-3.1-34.2-22.5-12.4-9.2-18.3-16.5,8.2,3.3,12.4,9.2ZM213.6,176.9c.9.5,1.7,1,2.6,1.5-2.1-1.5-4.1-3-6.4-4.2,1.1,1,2.4,1.9,3.7,2.7h0Z"/>
      <path d="M205.8,181.4c-12-12.9-16.3-25,.9-5.5-2.5-2.6-13.2-15.9-6.7-9.1,11.7,7.7,22,19.3,8.5,2.7,2,3.5,9.2,7.6,8.9,10.8-5.9-2.9-10.1-8.5-15.9-11.7,2.3,3.4,6.2,6.5,8.1,9.6-5.9-1.5-9.7-7.7-13.5-12.2,1,5.2,11.1,12.7,9.7,15.4h0Z"/>
      <path d="M219.6,191.7c-2-1.5-4.8-2.5-6.3-4.2,1.5.6,6.6,3.1,6.3,4.2Z"/>
      <path d="M231.4,199.4c-7.2-4.6-19.6-9.1-22.8-15.9,2.8,4.5,23.5,14.5,17.1,12,1.1,1.1,7.2,2.8,5.7,3.9h0Z"/>
      <path d="M222,194.4c-19.1-9-41.9-29.8-48-46,12.7,18.2,29.3,36,48,46Z"/>
      <path d="M185.2,161.6C138.7,118,139.8,33,76,9.3c64.6,18.5,65.5,110.2,109.1,152.3Z"/>
      <path d="M80,247.1C-14,216.1-32.1,43,63.1,6.1c5,.8,12.7.6,15.8,4.9-4.6-2.6-10.8-3.6-16.3-3.6C-33.4,48.1-7.2,215.3,80,247.1h0Z"/>
      <path d="M127.7,220.4c-15.1-35-20.3-72.4-11.8-109.8C119.7,69.7,97.6.5,46.1,20.1c50.9-25.5,75.9,50.9,71.4,90.6-9.9,36.8-.2,77.6,10.3,109.7Z"/>
      <path d="M2.2,110.8c2.2-22.7,6.3-53.7,22.6-69.2C8.6,58.7,5.6,89.6,2.2,110.8Z"/>
      <path d="M13.9,166.3c-11.4-27.2-10.4-62.5-3.6-93.6,1.1,3.2-1.6,10.5-1.9,15.1,4.6-21.3-1.4,64.2,5.5,78.5ZM6.3,123c.2,3.5.7,6.9,1.2,10.4,1.5-15-1-30.1,2.1-44.8-2.7,11.3-4.1,22.9-3.3,34.5h0Z"/>
      <path d="M45,222.2c-15.7-13.9-31.5-31.9-33-53.3,4.7,12.5,7.2,27,18.1,36.9-19-25.4,8.9,8.2,14.9,16.4ZM33.3,209.4c1.6,1.9,3.4,3.6,5.1,5.4-4.1-5-12.5-14.9-5.1-5.4Z"/>
      <path d="M126.5,220.7c-14.5-36.9-18.4-75.7-12.2-115.2-1.4,24.8-.2,90.7,9.2,101.3.5,2.1,5,13,3,13.9h0Z"/>
      <path d="M107.3,278.4c-10.9-60.3,4.2-4.7,3.6-29.6,2-3.4,3.8.8,3.9,2.9-2.6-19.1,6.1-9,7.5,2.9,4.5-24.5,14.8-67.1,38.3-73.7-25.6,9.7-31.3,59.8-39,76.7-1.9-5.2-2-11.4-5.6-15.9,0,1.5,1.6,21.5-2.1,15.2-3.1-16,.1,1.9-3.8,4.5-14.1-25.6,2.1,14-2.9,16.9h0Z"/>
      <path d="M117.6,217.8c-2.8-2.5-4.2-5.9-.5-1.3-5.1-11.5-20-27-20.2-36.9,4.5,6.1,15,32.7,19.1,24.2,2.7,8.7-5,3.4-7-1.6,2.3,5.1,8.4,10.9,8.8,15.7h0Z"/>
      <path d="M112.3,196.4c-10.7-14.1-11.4-20.4-.3-1.9-5.2-11.8-15.7-35.5-.5-8.4-2.8-5.9-11.9-34.8-2.8-19-.8-5.3-6.3-13-4.2-17.6,3.2,6.5,11.7,35.1,1.7,16,2.7,8.9,11.7,34,.2,13.8.4,4.8,8.9,14.1,5.9,17h0Z"/>
      <path d="M110.4,156.1c-1.5-4.3-4.8-8.8-5-13.1,1.3,2.8,6.5,11.5,5,13.1Z"/>
      <path d="M106.3,244.1c.2-2.3-6-19.2,1.5-11.3-6.6-16.5,2.2-5.3,6.7,3.2-1.3,3-4.7-5.6-6.5-7,.2,2,4.3,8.3,1.1,8.4-1.3-1.5-2.2-3.3-3.7-4.6.3,2.4,4.7,10.8.8,11.3h0Z"/>
      <path d="M152.5,235.1c6.6-22.1,30.8-48.6,55.9-36.5-25.2-11.3-51.5,25.6-55.9,36.5ZM161.1,219.5c3.8-4.5,7.1-9.4,11.4-13.4-5,3.3-8.1,8.6-11.4,13.4Z"/>
      <path d="M215.4,208.2c-2.3-1.7-5-3.3-7.3-4.5,1.9,0,7.4,3.3,7.3,4.5Z"/>
      <path d="M209.8,253.8c-11.6.7-26-16.5-13.5-22.4-8.8,9.1,2.2,19.9,13.2,20.8,15.5,0,19-22.7,4.1-25.5,17.9-2,12.7,28.6-3.7,27.1Z"/>
      <path d="M209.2,244.8c-13.4.4.4-17.2,5.9-8.5-2.4-.1-5-.4-7.8,1.1-6.7,5.4,12.5,6.2,1.9,7.4Z"/>
      <path d="M229.6,249.8c2.1-11.2.6-21.1-1-31.1,3.3,8.2,7.4,23.4,1,31.1Z"/>
      <path d="M225.3,221c0-.3.5-.3.5,0s-.5.3-.5,0Z"/>
      <path d="M225.8,252.1c2-10.6,4.2-23.6-1.1-32.4,6.5,9.8,4.3,22,1.1,32.4Z"/>
      <path d="M225.2,250.1c1.3-4.6,2.6-13.2,4.7-16.3-1.6,5.3-2.4,11.5-4.7,16.3Z"/>
      <path d="M206.8,303.1c12.9-10.1,17.8-27.3,24-42.2-4.5,13.5-9.8,35.1-24,42.2Z"/>
      <path d="M206.6,280.1c8.7-7.4,15.5-16.9,20.2-27.8-1.4,8.3-10.9,23.1-20.2,27.8Z"/>
      <path d="M209.4,274.7c3-5,6.6-11.2,10.7-15.4-3.3,4.8-6.9,11-10.7,15.4Z"/>
      <path d="M204.5,275.2c2.3-3.8,5.7-8.8,9.5-11.2-3.2,3.2-6.4,8-9.5,11.2Z"/>
      <path d="M202.1,271.8c-.8-.2,9.6-11.2,8.7-8.6-3.4,2.2-5.7,6.2-8.7,8.6Z"/>
      <path d="M199,300.7c5.3-5.6,11.4-13,16.1-15.4-5.2,4.7-10.8,10.8-16.1,15.4Z"/>
      <path d="M201,302.2c2.1-3.4,5.5-7.8,8.6-10.2-2.5,3.2-5.7,7.4-8.6,10.2Z"/>
      <path d="M240.5,348.7c-17.1-7.8,6.1-21.1,9.9-8.7-5.8-8.3-21.5-3.1-9.9,8.7Z"/>
      <path d="M244.8,350.9c-1-1.3-2.6-2.7-3-4.3,1.5-2.1,6.1,4.1,3,4.3Z"/>
      <path d="M250.1,350.1c-2.3-1.5-.3-5.3-1.1-7.7,1.5-1.7,2.3,8.5,1.1,7.7Z"/>
      <path d="M247,344.4c-2.9-3-1.4-6.6,2.6-4.4-1.8.2-5.2-.7-1.8,1.9-2,1.2,1.6,2.7-.8,2.5h0Z"/>
      <path d="M252.9,347c.1-1.4,1.8-3.6,2.9-4.4-.3,1.3-1.9,3.5-2.9,4.4Z"/>
      <path d="M252.9,350.7c.8-2.1,6.9-9.8,3-3.5.8-.6,3-3.7,4-2.5.3,1.1,3.9,2.8-.2,2.4-2.7.6-4.4,3.5-6.8,3.6h0Z"/>
      <path d="M253.6,352.6c-1.6-3,3.1-3.5,4.8-4.3,3.3,1.3-3.5,4.1-4.8,4.3Z"/>
      <path d="M259.8,337.7c-1.3-1.2-5-.6-4.9-2.6,1.3-2.7,9.5,3,4.9,2.6Z"/>
      <path d="M256.7,352c-1.3-2,9.9-7.4,11.6-6.4-2.6,2.8-7.9,5-11.6,6.4Z"/>
      <path d="M251.3,358.5c0-.3.5-.3.5,0s-.5.3-.5,0Z"/>
      <path d="M251.2,387.8c.9-9.9-2.3-27.6.9-33.7-.9,8.7,3.2,29-.9,33.7Z"/>
      <path d="M250,353.6c.1-2.8-2.8-11.8.2-11.7.8,3.5,3.5,12.1-.2,11.7Z"/>
      <path d="M263.9,340.4c0-.9.1-2.1-.9-2.4-2.5-.2,2.2-4.9-4.7-1.8-2-4.2,9-1.9,6.6,1.2,1.3,1,.5,5.9-1,3Z"/>
      <path d="M283.3,240.4c-5.2-14.1,13.9-40.7,3.8-22.9-5,5.8-.9,20-3.8,22.9ZM288.6,214c0,0,0,.2-.1.3,2.9-3.3,2.4-4.4.1-.3Z"/>
      <path d="M284.8,261c-3.6-11.3-6.9-26.8.5-36.8-7.3,9.7.4,27.2-.5,36.8Z"/>
      <path d="M283.7,254.4c-.3-4.6-.2-9.3.8-13.9-3.3,8.5.5-10.7,4.4-9.1-4.6,2.2-2.2,22.6-5.2,23h0Z"/>
      <path d="M295,257.9c-5.4-4.3-8-23,.6-22.7-4.9,2.9,1.6,22.5-3.2,16.9-.3,1.9,5.3,5.8,2.6,5.9h0ZM292.7,249.6c1.1,1.9-.8-5.1-.6-6.7-.8,2.2-.5,4.6.6,6.7ZM291.5,241.7c.7-1.8,1.5-3.6,2.1-5.4-1.2,1.5-1.8,3.5-2.1,5.4Z"/>
      <path d="M304.7,252.6c-8.1-.8-4.7-11.1,2.2-9.4,3.2.9.2,1.9-1.5,1.1,0,0,.1,0,0,0-8.9,5.5,9.9,7.2-.8,8.3h0Z"/>
      <path d="M201.9,225.8c2.2-2.5,7.7-2.6,10.6-1.3-3.4-.3-7.5-.4-10.6,1.3Z"/>
      <path d="M194.1,232.3c1.9-2.5,6.9-4.9,10.1-4-3.5.4-7.1,2.2-10.1,4Z"/>
      <path d="M288.7,216c-2.3-5,6.5-9,10-9.7-2.3,3.4-9.9,4.1-10,9.7Z"/>
      <path d="M290.1,211.3c5.6-9.1,24-9.7,31.9-4.2-9.7-3.5-24.4-4.8-31.9,4.2Z"/>
      <path d="M306.5,177.9c-10.9-3.4-14.5-5.9-1.4-1-.5-.4-2.9-1.4-1.8-1.7.7.7,4,1.8,3.2,2.7Z"/>
      <path d="M267.1,199.8c4.3-6.3,11-13.8,17.4-18-4.9,4.9-10.6,10.3-15.4,15.8,4.1-3.5,10.6-10.7,15.1-10.3-6.9,2.1-11.7,8.6-17.1,12.5h0Z"/>
      <path d="M256,209c-1.2.2,7-25.4,7-18.4-1.1,4.2-2.5,8.4-3.7,12.6.5-.6,7.9-16.6,7.7-11.5-2.9.9-5.3,9-7.8,12.7-2.4,2.8,3.4-13.1,3.2-13.9-3,5.8-4.1,12.9-6.4,18.6h0Z"/>
      <path d="M244.5,202.9c-1.4-3.7-7.7-7.4-8-10.2,2.9,2,5.6,7.5,5,1.8.4,1,.6,2.5,1.3,3.6.4.4,7.7,4.6,5.4,4.5-4.5-3.3-4.6-4.3-3.7.3h0ZM241,197.6c2.8,3.4,1.9.9-.6-.7.2.2.4.4.6.7Z"/>
      <path d="M249.8,198.4c-.2-.8-2.5-3.5-1.3-3.4.2.8,2.5,3.5,1.3,3.4Z"/>
      <path d="M253.8,236.7c-.9-7.1,0-14.9,1.1-21.6-.2,6.5-1,16.2-1.1,21.6Z"/>
      <path d="M246.5,218.2c-.8-1-1.5-2.1-2.4-3.1,1.8,3.3-6.9-8.2-9.9-9.9,8.2,8.5,3,6.1-1.4-1.3,9,7,7.8,2.8,13.7,14.3h0Z"/>
      <path d="M232.7,215.8c-9.3-9.9-5.3-14.5,1.1-1.7,0-2-2.1-3.6-2.3-5.2,1.1.6,3.9,5.4,2.3,6-7.2-12.3-6.7-7.2-1.1.9h0Z"/>
      <path d="M214.2,221.7c0-1.3.2-8.4,2.4-6.8-1.9.5-1.2,4.8-2.4,6.8Z"/>
      <path d="M206.2,211.9c0-.3.5-.3.5,0s-.5.3-.5,0Z"/>
      <path d="M196,222.1c-.5-7.6,1.9-22.1,6.1-6.6-.4-7,5.6-12,3.1-2.4-.2-11.6-2.3,1.7-3.2,4.2-4.6-17.2-4.6-3.5-6,4.7Z"/>
      <path d="M192.1,219.2c-4.5-2.8-17.7-2.9-18.2-6.9,12.4,2.2,18,12.8,16.1-1.8,2,2.2,1.1,2.5-.5.3-1.2,2.9,4,6.6,2.6,8.5h0ZM175.9,213.9c1,.3,2,.5,3,.8-1.8-1-7.7-2.6-3-.8Z"/>
      <path d="M168.2,223.7c2-1.8,6.7-2.8,9.1-1.8-2.9,0-6.4.9-9.1,1.8Z"/>
      <path d="M167.9,226.8c-1.7-.3,9.4-2.1,11.6-1.8-3.6.7-7.8,1.8-11.6,1.8Z"/>
      <path d="M168,240c1.5-4.1,7.5-7.2,11.4-8.5-3.8,2.4-8.7,4.7-11.4,8.5Z"/>
      <path d="M168.8,243.8c3-.8,7.2-2.6,10.4-2.3-3.1.6-7.3,2.4-10.4,2.3Z"/>
      <path d="M174.7,247.8c1.7-1.5,4.9-3.3,7-4-1.7,1.5-4.9,3.3-7,4Z"/>
      <path d="M175.8,254.1c1.5-2.4,3.5-6.2,5.6-8.2-1.3,2.6-3.3,6.4-5.6,8.2Z"/>
      <path d="M169.1,258.8c2.5-.5,5.7-2.3,8.2-2.6-2,1.2-5.9,3.1-8.2,2.6Z"/>
      <path d="M173.4,266.6c1.5-2.7,13.6-7,3.7-4.4,8.5-4.2,3,1.4-1.8,3.3,6.8-2,15.6-10.8,7.2.1,4.7-8.8-2.7.4-9,.9h0Z"/>
      <path d="M185,275.1c1.2-3.4,7.8-16.5,11.1-14-4.4,1.5-7.2,10.5-11.1,14Z"/>
      <path d="M191.5,275.7c1.6-3.5,4.2-8.1,6.5-11.3-1.4,3.6-4.1,8.2-6.5,11.3Z"/>
      <path d="M191.1,297.6c1.7-4.9,7.6-15.9,12-16.4-5.6,3.8-8.4,11.2-12,16.4Z"/>
      <path d="M191.1,306.1c-.9-1.5,2.2-7.5,3.7-8.4-.7,2.5-2.8,5.9-3.7,8.4Z"/>
      <path d="M188.8,314.3c-.8-.1,7.8-13,7.3-10.3-2.9,3-4.8,7.3-7.3,10.3Z"/>
      <path d="M299.3,211.7c0-.3.5-.3.5,0s-.5.3-.5,0Z"/>
      <path d="M286.2,249.8c-.8-4.6,2.5-21.6,4.9-19.4-3.9,4.5-4,14.6-4.9,19.4Z"/>
      <path d="M293.1,260.6c-3-6.6-9.3-16-3.4-22.5-6.2,7.2,4.2,17.9,3.4,22.5Z"/>
      <path d="M292.7,271.6c-4.3-6.7-2.5-11.7,2.3-2.8-.6-1.6-7.1-11.1-3-8.9.4.4,2,1.6.9,1.5-5.1-4.2,3.5,6.3,2.4,8.1-7.1-8.4-4-3.7-2.7,2h0Z"/>
      <path d="M279.4,286.4c.1-.5,7.5-29.1,7.4-21.7-1.5.8-4.2,14.6-7.4,21.7Z"/>
      <path d="M276.6,285.1c-.4-3.5,5.2-24.8.3-13.4-1.7,1.8-1.2-2-.7-2.9,5.4-10.5,2.6,10,.6,15.1,1.8-4,2.7-9.3,5.8-12.4-2.4,3.9-3.8,9.5-6,13.5h0Z"/>
      <path d="M264,274.5c1.2-3.5,5.5-8.4,8.5-10.4-1.3,3.4-5.8,8-8.5,10.4Z"/>
      <path d="M253.2,260.8c-2.6-2.1-6.2-13.2-2.6-5.4.5-.3,4.4,3.5,2.8,3.3-2.1-2.2,1.2,1.9-.2,2.1ZM252,258.3c.3.5.5,1,.8,1.5-.5-1.2-1.1-2.4-1.9-3.5.3.7.7,1.4,1,2Z"/>
      <path d="M256.4,255.8c-.6-.7-3.7-3.5-2.4-3.7.2,1.2,3.5,3.3,2.4,3.7Z"/>
      <path d="M259.2,250.6c1.2-6.4,7.1-13.2,2.6-2.2,4.8-8.6,4.9-21.6,11.9-28.9-5.7,17.1-12.5,30.7-14.5,31.1h0ZM268.7,230c-.1.4-.3.9-.4,1.3,1.5-3.4,3-6.8,4.5-10.2-1.8,2.8-3.1,5.8-4,8.9h0Z"/>
      <path d="M289.7,225c-.1-3.7,2.4-9.3,4.1-12.7-.9,3.9-2.8,9-4.1,12.7Z"/>
      <path d="M297,222.8c1.2-3.6,3.1-8,5.5-10.6-1.4,2.6-3.9,10-5.5,10.6Z"/>
      <path d="M299.2,227.4c1.4-4.2,4.1-12.7,7.8-14.9-3,4.4-3.8,14.3-7.8,14.9Z"/>
      <path d="M305.2,223.4c0-3.2,8.2-12.4,4.2-5.4,10.7-12.2,4.7-.9-.5,5.5-1.1-.4,2.9-5.6,3.3-6.6-2.3,1.4-4.4,7.6-7,6.4Z"/>
      <path d="M319.8,224.4c4.7-12.4-8.7,7.7-3.2-4.4-3.6-.4,2.9-3.2,1.4.3,6-6.4,5.4,1.9,1.8,4.1h0Z"/>
      <path d="M308.8,259.9c-17.5,3.6-22-24-8.9-23.9-16,9-.2,27.8,14.3,21.2,12.5-7.4,7.6-22.9-5.5-24.7,18-4.5,19.6,28.3,0,27.5h0Z"/>
      <path d="M306.8,253.5c-9.6,1.4-5.2-17.8-.2-8.5.2,3.7-1.2,0-1.6-.9,0,0,0,0,0,0-10.5,8,14.9,5.9,1.7,9.4h0Z"/>
      <path d="M52.2,221c-2.9-2.1-6.4-3.9-9-6.1,2.4,1,8.5,4.3,9,6.1Z"/>
      <path d="M47.4,216c-2.8-1.6-15.6-9.3-14.6-12.5,2.4,5.6,12.3,9,14.6,12.5Z"/>
      <path d="M40.7,208.9c-4.7-2.9-9.7-7.1-13.4-10.6,5.4,3.6,19.3,15.5,7.5,4.2-4.7-5.2-12.5-11.2-14.9-16.8,5.5,6.1,18.4,16.2,4.7,5.4,4,6.2,14.6,11.6,16.1,17.7h0Z"/>
      <path d="M158.4,185.9c0-.3.5-.3.5,0s-.5.3-.5,0Z"/>
      <path d="M129.9,207.6c-6.2-15.5-14.4-38.9-5.4-53.5-.9,9.1,2.7,18.3,4.4,26.6-3.8-2.8-4.9-24.2-5.7-11.2h0c-1.5,4.8,0-7.9,0-10.1-4.9,17.4,3.9,32.8,6.6,48.2h0ZM129.9,206.9c-.4-.9-.7-2.6-1.2-3,.3,1,.6,2.1,1.2,3Z"/>
      <path d="M139.6,200.8c-2.3-4.2-3.1-19.1-3.6-9.8-2-8.7,2-4.2,2.1,1.5-1.4-18.2,5,8.8,1.5,8.3h0Z"/>
      <path d="M113.2,360.4c-40.2-20.8-8.4-67.4-7.7-98.8-1,33.1-26.3,78.1,7.7,98.8Z"/>
      <path d="M213.8,398.2c-20.2,2.2-31.4-19.6-50.5-18.9,8.6-5.6,22.3,3.9,29,10.4,17,16,41,.4,56.8-4.8-11,5.6-22,13.7-35.2,13.3h0Z"/>
      <path d="M296.2,393.6c-10.9,0-26.4-2.3-33.7-8.7,9.3,3.9,19.9,6.9,30.3,6.9,14.2,2.9,23.3-14.4,35.5-13.6-10.2,4.1-19.7,15-32.1,15.4h0Z"/>
      <path d="M244.2,389.3c0-.3.5-.3.5,0s-.5.3-.5,0Z"/>
      <path d="M252.9,391.8c-2.6.3-13.5-.4-8-2.4-4.1-2.6,15.3,2.8,19.9-1,2.2,3.4-9,3.9-11.9,3.4Z"/>
      <path d="M248.3,401.5c-4.4.6-14.3-3-14.2-6.2,11.4,9,27.4,4,38.6-1.8,12.1,0-20.2,10.1-24.4,8h0Z"/>
      <path d="M300.1,303.9c-6.2-10.5-6.7-23.6-10.3-34.1.4-4-3.1,3.6-1.8-1.9-.5-15.2,14.4,34.7,12,36.1ZM288.6,267.9c.8-.9,1.6-1.6.8-3.1-.6.9-.6,2.1-.8,3.1Z"/>
      <path d="M317.9,356.6c3-6.2,1-12.5,2-18.4,1.8,3.9,3.2,17.1-2,18.4Z"/>
      <path d="M181.6,366.9c-4.4-2.8-4.7-8.1-.2-1.5-6.8-5.8.3-22.7,3-24.4-1.4,3.7-2.8,7.5-4.1,11.2.4-.5,3.5-7.1,3.9-4.8-1.3,3.9-4.8,6.9-5.3,11.1-1.2,2.3,6.5,6.7,2.7,8.5h0Z"/>
      <path d="M164.4,371c-.3-1-6-14.7-2.8-12.7,8.7,19.1.2-6.7,5.5-.2-2.7-.4,2.8,20-4.8,3.6,0,2.3,4.8,9.5,2.1,9.3Z"/>
      <path d="M309.3,171.2c-1-1.7,2.3-2.3,3.5-2.5-2.7-.6-5.4-.4-8.1-.2,3.8-4.2,20-3.3,27.5-7.4-.7,6.5-25.8,2.9-17.5,8,4.7-1.5-3.6,2.9-5.4,2.1h0ZM310,170.9c1.5-.2,2.8-1,4.2-1.5-1,.1-4.8.2-4.2,1.5Z"/>
      <path d="M360,184.3c-9-6.1-18.4-26.1-30.7-19.4,8.2-10,29,14.6,30.7,19.4Z"/>
      <path d="M307.4,178.7c9.7-9.9,4-4.5-4.5-.9-.2-2.2,11.9-7.5,14-9.8.8,2.7-5.7,10.1-9.6,10.6h0ZM315.2,170.5c.4-.3.8-.7,1.1-1.1-.3.3-1.7,1.1-1.1,1.1Z"/>
      <path d="M308.5,182c-.9-5.2-4.5-.6-4.8-2.5,6.2-2.1,6.9-3.6,4.8,2.5ZM308.2,179.5c.5,1.5.5-.6.8-1.3-.2.4-1,.8-.8,1.3Z"/>
      <path d="M309.7,173.8C374.5,131.5,377.1,0,468.1,2.7c-93,4.8-89.7,130-158.4,171.1Z"/>
      <path d="M388.1,207.5c17.4-56,2.3-178.1,68.1-193.4-71.4,27.9-43.5,138.3-68.1,193.4Z"/>
      <path d="M371.1,200.1c-14.3-14.9-16.4-49.7-43-39-1.2.6,6.3,2.3,4.2,2.7-5.8-1.7-6-4.1.5-4.2,19.2-9.8,33.2,30.7,38.4,40.5h0Z"/>
      <path d="M362.5,279.9c-6.6-22.6-15.9-66.2-1.1-79-12.9,8-2.9,59.3,1.1,79Z"/>
      <path d="M293.3,275.8c-.5-4,1.9-15.3,4.3-5.8-5.2-10-2,4.3-4.3,5.8Z"/>
      <path d="M303.7,274.1c-1.6-8.2,0-1.2-3.6-1.5-.6-2.4-.8-8.2-3.1-3.2-1.2.3.8-2.2,1.2-2.7,2.4-.1,1.5,4.3,2.5,5.7,2.7-8,4,0,3,1.7h0Z"/>
      <path d="M307.3,275.6c-.3-1.3-.9-7.4.5-7.8-.5,1.7.8,7.7-.5,7.8Z"/>
      <path d="M307,280.4c-.5-4.6-2-9.5-1-14,.4,1.8,2.4,12.9,1,14Z"/>
      <path d="M302.4,297.4c.1-5.5-2.2-17.4-.6-19.9,0,5.7,2.4,16.4.6,19.9Z"/>
      <path d="M312.5,314c5.3-22.6-9.4-2.5-3.1-15.1-7.6,9.7-2.8-6.2-3-10.9-2.4,21.6,8.2,1.5,2.2,14.6,9.4-8,5.6,10.1,3.8,11.5h0Z"/>
      <path d="M235.1,319.1c-1.5-1-3.7-1.2-4.9-2.2.9-.3,5.6,1.4,4.9,2.2Z"/>
      <path d="M324.8,327c-1.7-6.8-4.8-29.5-4.7-11.8-1.8,2.9-.8-6.2-.6-7.2-1.2,1.4-4.9,8.7-3.1,3.9,6.2-18.6,6.7,7.9,8.3,15.1h0ZM319.2,307.5c.4-.3.4-.7.5-1.2-.2.4-.3.8-.5,1.2Z"/>
      <path d="M331.3,346.9c-2.4-5.3,5.1-7.3-3.2-5.9.1-3.1,2.7-5.9,3.4-8.9-1.4.7-6,5.1-6.6,1.9,9.5-22.6-9.2,10.5,0-18.7,1.8,3.8-1.7,7.7-2.6,11.3,8-2.1,8.7-7,3.7,7.3,8.5-6.3,7.4-1.2,3.7,5.7,5.8-6.5,3.7,5.1,1.5,7.2h0Z"/>
      <path d="M363,251.9c-1.3-11.7,3.1-19.3,3.5-3-2.9-16.6-2.5-4.9-3.5,3Z"/>
      <path d="M361.8,211.8c.7-3.5,4.6-8.1,8.1-9-3.3,1.9-6.6,6.4-8.1,9Z"/>
      <path d="M358.7,225c6.9-18.8,13.5-25.4.8-.9.3.6-.2,1.9-.8.9Z"/>
      <path d="M359.6,231c1.8-5.7,7.5-10.7,10.1-16.5-5.8,8-5.8,5.7.1-.7-.3,5.1-7.7,12-10.2,17.2h0Z"/>
      <path d="M364.5,250.5c3.1-17.6,15.8-21.2-3.5-7.1-1.7-2.7,5.7-8.3-.5-3.2-3.3-4.8,9.9-14.6,10.2-20.9,0,6.6-8.8,13.2-10.9,20.2,6-3.2,8.8-11.7,13.4-16.5-2.8,6.8-9.4,12.7-12,19.7,5.5-1.9,8-8.3,11.9-12.3.5,5.5-8.2,13.3-8.7,20h0Z"/>
      <path d="M366.4,255c.6-5,5.3-9.8,7.2-14.6-.5,4.2-5.7,10-7.2,14.6Z"/>
      <path d="M371.4,260.2c0-4.1,2.7-8.6,2.9-12.9,1.6.6-2,10.9-2.9,12.9Z"/>
      <path d="M380,216.8c-5.5-10,8.5-42-2.7-18.9-3.1,1.6-2.8-4.7-2.9-6.5.1-6.9,3.3-13.5,3.8-20.3-5.3,5.7-13.1,20-15.3,5.7,1,4.8,2.4,9.4,4.2,14-1.5,2.5-8.9-22-4.3-19.8,2.1,20,7.9,5.7,13.2-6.1,2.3,3.4-10.9,20.9.5,6.1,8.6-2-4.5,19.6,0,25.7,2-5.2,9-20.3,6.7-5.6-3.4,7.5-1.5,21.5-3.1,25.8h0Z"/>
      <path d="M387.5,228.4c0-8.2,3.3-17.2,3.5-25.7-6.1,26-13.3,28.4-4.5,0-1.3,5.1-3.1,7.4-.7.6,4.6-10.9-4,15.9-3.1,20.9,6-17.6,12.3-35.8,7.2-4.7,2.7-12.9,14.7-48.6.2-21.8,3.8-11,7.3-24.8,10.6-36.8-1.2,12.6-1.8,42.7-13.2,67.5h0Z"/>
      <path d="M415,269.4c0-7,3-13.9,3.3-20.8-2.7,2.7-7.5,16.8-10.4,12.8,5-29.5,4-5.7-3.7-1,.2-6.4.5-12.8,1.8-19.1-.8,1.4-2.5,7.3-4.7,4.9-.4-2.4,1.2-4.9.7-7.3-.8,1.5-4.6,6.1-5,2.1,1.8-7.9,2.3-8.2-3.3-2.1-1.5.4-1.6-1.2-1.2-2.2,8.9-25.2-4.7,6.5-1.3-9.9,1.2-5.4,3.4-10.8,3.9-16.3-1.5,1.6-4.5,9.1-6.4,8.7-3.2-8.9,12-23.9,6.9-30.5-9.1-11.2,21.4-68.1,5.3-29.6-2,7.9-10.4,22.9-4.2,28.7,2.6.8.3,4.9,0,6.6-2.2,8-7.7,15.9-7.7,24.2,10.5-17.8,6.3-.5,3.4,9.6,1.4-1.4,4.6-10.2,6.1-5.8-8.9,26.6,6.2-4.7.1,18.7,4.2-6.8,6.3-2.1,4.4,3.5,2.4-3,3.3-10.5,6.2-11.6-5.1,20.1-6.5,35,3.3,7.4,2.7,10.7-9,29.6,5,7.3,4.8-2.4-1.1,22.5-2.5,21.8h0Z"/>
      <path d="M412.7,290.8c-.8-36.3,32.7-41.9,59.7-53.6,35.9-28.9,49.9-71.1,39.4-114.5,15.4,42.5-4.1,87-38,116-32,15.3-53.7,11.7-61,52.1h0Z"/>
      <path d="M514.6,128.2c-9.9-41.3-.7-113.7-52-126.8,51,6.6,48.2,92.1,52,126.8Z"/>
      <path d="M507.7,117.9c-5.5-34.6-5.9-73.2-29.9-100.8,24.7,24.8,29.1,69.4,29.9,100.8Z"/>
      <path d="M369.1,377.7c53.8-10.5,46.9-65.4,35.3-107,6.2.3,6.9,21,7.7,28.7,1.2-5.4-1.3-19.1,4.5-19.8-4.4,36.8,6,94.5-47.6,98.2h0ZM406.8,281.4c1,4.3,2.7,8.4,3.7,12.8.9-9.2-7.5-33.8-3.7-12.8Z"/>
      <path d="M319.7,282.1c-3.5-3.5-6.7-9.9-9.9-9.8,1.9-4.3,11.8,9.7,9.9,9.8Z"/>
      <path d="M318,274.3c-1-1.6-2.9-2.9-3.7-4.3,1,0,5,4.1,3.7,4.3Z"/>
      <path d="M296.9,272.9c-.9-1.8-.8-6.3-.4-8.1,2,.8,2,7.1.4,8.1Z"/>
      <path d="M298.8,274.7c.2-2-1.5-11,1.1-9.2-.8,2.1,1.6,10.7-1.1,9.2Z"/>
      <path d="M305.4,274.5c-.4-1.3-3.6-9.4-2.1-9.7.6,1.5,4.3,10.2,2.1,9.7Z"/>
      <path d="M314.5,275.2c-2-3-5.1-6.1-6.4-9.1,1.5.5,8.3,8.7,6.4,9.1Z"/>
      <path d="M321.5,272c-2.3-2.4-6.1-4.6-7.4-7.4,1-.4,10,7.2,7.4,7.4Z"/>
      <path d="M327.6,268c-3-1.3-7-2.6-8.7-5.4,1.9,1.9,8.2,3.9,8.7,5.4Z"/>
      <path d="M333.4,260.7c-3.2-2.1-6.9-4.1-4.7-8.5-5.9,8.9.9-6.2,2.4-9.8,2.7-2-1.4,5.7-1.9,7.1,5.7-5.2-5.5,4.9,4.1,11.2h0Z"/>
      <path d="M342.8,264.5c-1.7-.6-6.5-3.2-5.7-4.6.8,2.3,6,3.4,5.7,4.6Z"/>
      <path d="M333.1,239.4c.3-1.7,2-4.7,3.5-5.6-.7,1.6-2.2,4.4-3.5,5.6Z"/>
      <path d="M296.4,210.7c2.1-6.8,21.8-10.8,23.7-5.2-7.7-3.6-18.4-.7-23.7,5.2Z"/>
      <path d="M340.1,222.7c-3-7.2-5.7-15.1-11.7-20,4.7-4.6,19.1,25.2,13.1,18.6.5,1-.4,2.2-1.4,1.4Z"/>
      <path d="M333.8,179.6c3.1-3.1,9-8,13.5-9.2-2.4,2-6.3,3.3-8.6,5.8,5-3,11.7-5.3,3.9,1.2,7.8-8.9-3.9.3-8.8,2.1h0Z"/>
      <path d="M207.5,183.2c-6.1-4-30.4-32.9-13.2-18.9-3.1-3.2,1.2-3,3.2-1.4,1.3,1.3-.9,1.3-1.7.7,3.2,2.9-.6,4.6-3,2.9,2.9,2.9,5.9,5.5,8.5,8.7-3.7-4.8,9.3,8.8,6.3,7.9h0Z"/>
      <path d="M43.7,411.5c45.2-25.8,113.3-51.2,160.6-56.2-52.5,9.4-111.2,32.7-160.6,56.2Z"/>
      <path d="M4,498.2c57.7-55.1,136-102.2,210.1-134.2-74.3,35.1-148.2,80.1-210.1,134.2Z"/>
      <path d="M6.6,557.3c56-72.7,137.2-134.7,214.3-183-77.2,51.3-154.7,111.8-214.3,183h0Z"/>
      <path d="M525.9,544c-76.7-63.2-151.1-133.7-242-174.5,90.2,36.6,175,113.1,242,174.5h0Z"/>
      <path d="M516.9,482.4c-72.2-41.2-139.5-93.3-218.5-121.1,74.9,22.7,155,80.6,218.5,121.1Z"/>
      <path d="M534.1,418.7c-81-26.8-162.5-59.8-246.2-73.6,82.2,10.9,173.3,45.4,246.2,73.6Z"/>
      <path d="M384.6,184.5c-.9-5.3.7-9.4.6-1.6,3.6-8.6,7.9-32.8,5.7-10.9,2.9-10.5.2-25.3,2.8-34.1,1.2,10.1-4.8,56.8-3.3,31.5-1.7,4.4-2.6,13-5.8,15.1h0Z"/>
      <path d="M393.8,160.5c1.6-18.5,2.2-40.6,5.1-57.3-2,18.6-2.7,40.2-5.1,57.3Z"/>
      <path d="M397,144.1c3.5-41.3,1.8-96.3,38-123.4-33.6,30.7-33.9,81.1-38,123.4Z"/>
      <path d="M129.3,376.2c-4.9-5.8-14.8-11.4-18.9-15.2,6.2,3.3,16.9,10.2,18.9,15.2Z"/>
      <path d="M152.3,380.8c-16.6.9-37.1-7.7-41.8-24.5,4.9,19.3,31,21.2,41.8,24.5Z"/>
      <path d="M364.9,378.8c-5.2-.8-16.5,1.2-18.7-1.9,8.1,1.7,39.8,0,18.7,1.9Z"/>
      <path d="M362.5,378.6c4.1-2.2,9.8-4.2,14.3-5.3-4.1,2-9.9,4-14.3,5.3Z"/>
      <path d="M241.4,320.2c-1.9-2.6-8-3.9-8.7-5.8,5.3,3.5,8.6,2.2,8.7,5.8Z"/>
      <path d="M245.2,308.4c-4.3-4.4-6-8.4-.7-1.5-4.4-9.8,3.6-6.9,4.4.8-1.6,1.9-1.9-5.4-3.6-6.4-4-2.3,1.2,6.8,0,7.1h0Z"/>
      <path d="M262.7,320.6c-1.9-.6,2-5.5,2.2-6.8-4.2,2.5-11.3,5.3-7.5-2.4-14.1,5.9-4.6-2.8-.1-9.2.8,1.6-10.5,12.4-5.2,10.6,3.8-3.5,8.4-3.8,5.3,2.4,7.8-1.6,12.3-6.2,5.3,5.4h0Z"/>
      <path d="M251,365.5c-2.2-1.9-5.6-2-7.7-3.5,1.5-.2,8.5,2.2,7.7,3.5Z"/>
      <path d="M246.6,371c-1.6-2.1-3.6-4.9-3.8-7.4.8,1.8,4.1,6.3,3.8,7.4Z"/>
      <path d="M232.5,389.2c-6.2-1.2-7.4-2.7-.5-.6,3.3.3-1.4-1.4-1.2-2.9.9-1.7,4,1.2,5.1,0-2.5-3.9,0-5.8,2.9-2.5-3-1-3.9-1-2.1,2.5,0,2.1-4.2,0-5.2,0,.5,1.3,4.7,3.3,1,3.5h0Z"/>
      <path d="M263.5,380.6c-.4-1.8,1.4-5.7,2.8-6.9,0,1.9-1.7,5.3-2.8,6.9Z"/>
      <path d="M268.5,386.8c-2-1.4,2.5-6.5,3.6-7.8-.7,2.5-4.2,5.5-3.6,7.8Z"/>
      <path d="M278.7,386.5c-.3-1.6-1.5-3.5-1.2-5,.6.7,2.3,5.2,1.2,5Z"/>
      <path d="M181,345.4c.2-6.1,5-16.6,9.7-18.9-5.4,5-8,12.3-9.7,18.9Z"/>
      <path d="M177.6,350.3c-1.2-6-8.7-20.3-8.1-21.6,3.2,3.8,6.2,8,10.7,10.3-2.8-2.6-9.4-10.3-5.1-13.1,1.6,2,5.6,7,5.1,8.5-1.6-1.4-4.3-9.7-6-7.2-.8,5.4,5.6,9.4,6.9,12.7-18.4-14-3.1-.4-3.5,10.3Z"/>
      <path d="M142.1,238.4c3.6-.1,3.4-2.6,1.9-5.4h0c-1.7-4.4-6.5-9.1-7.2-13.1,5.2,2.9,9.3,9.6,15.6,9.9.2,0,.4-.1.7-.2.3-.2.5-.4.7-.7h0s0,0,0,0h0c.4-.5.4-1.2.2-1.8-.1-.4-.2-.7-.4-1.1h0c-1.6-3.2-8.1-11.5-2.1-12.8,1,.8-2.1.3-1.9,1.7-.3,2.1.7,4.2,1.6,6.1,13.5,25.1-21.6-8.7-11,4.7,1.7,3.1,9.8,14,1.8,12.8h0Z"/>
      <path d="M138.7,252.8c-2.1-4.5-11-17.8-3.8-20.5-6.8,4.1,3.8,16.5,3.8,20.5Z"/>
      <path d="M110.2,288.6c7.9-3.3,5.9-17.4,13.5-19.3-6.8,3.5-5,17.5-13.5,19.3Z"/>
      <path d="M99.7,321.2c16.1-37.4-14.1,11,5.2-24.7-18.4,20.7,3-14.4,8.2-19.7-5.4,8.6-24.9,37.9-7.9,18.5,1.9-1.4.3,1.6-.3,2.2-6.1,9.9-8,14.8,2.1,4.3.1,5.8-5.7,13.4-7.3,19.3h0Z"/>
      <path d="M104.6,354.2c-2.1-7.6,1.8-18.5.1-24.5-13,9.6-7.3-18,0-19.2-7.1,3.3-12.3,27.4.7,18.6.2,7.6-1,19-.9,25.2h0Z"/>
      <path d="M118.8,360c-4.5-3.9-2.7-6.6-1.9-11.7-4,7.9-6.9,4.1-3.9,0-1.2,9.3,2.6-2.9,4.5,0-2.4,4.4.3,9.4,1.2,11.7Z"/>
      <path d="M136.1,372.6c-3.1-1.2-5.4-5-5.2-8.1.4,3.2,4,6.7,5.2,8.1Z"/>
      <path d="M357.4,369.6c-4.9-.7-6.9-8-8.2-2-.2-2.4.8-5.4.3-8.1,1.7-1.9,0,8.7,7.8,9.5-3.9-5.8.5-10.9,3.3-4.5-6.9-6.9-3.2,1.8-3.3,5Z"/>
      <path d="M334.3,366.9c1.4-3,3.6-10.4,5.9-11.3-1.3,1.5-1.7,6.6-3.1,6.4-4.7,8.5,2.3-.8,5.7-1.8-1.9,1.9-6.1,6.5-8.5,6.6h0Z"/>
      <path d="M162.2,367.1c-8.1-.5,2.5-21,5.2-24-2,5.5-12.4,20.7-5.2,24Z"/>
      <path d="M132.3,374c.9-2.5,4-5.7,6.1-7.2-1.6,2.3-4.3,5.1-6.1,7.2Z"/>
      <path d="M352.5,371.3c.2-9-9.7-10.6-12.8-2.3-3.2,4.6,2.4-3.1-3.7.2-1.3-3.8,7.9-13.5,4.1-2.8,9.9-13.1,14,2.6,12.4,4.9h0ZM336.5,368.9c3-.8,4-4.2,4-7-1.1-.2-5,6.3-4,7ZM339.6,368.1c.2-.4.4-.8.7-1.1-.4.2-.5.7-.7,1.1ZM347.4,363c3.2,1.3,2.8-1.1.5-2.2-2.4,1.5-4.6,2.7-.5,2.2Z"/>
      <path d="M364,367.3c-1.9-.7-4.6-1.8-5.6-3.4,1.1.3,6.3,2.6,5.6,3.4Z"/>
      <path d="M211.2,396.5c2.2-2.6,7.3-4.4,10.5-5.5-3,2.1-7.4,3.5-10.5,5.5Z"/>
      <path d="M388,358.5c0-2.2-1-4.9-.5-6.9.5,1.3,1.6,6.7.5,6.9Z"/>
      <path d="M377.3,366.5c.4-4.5,3.8-15.4,7.8-17.6-4.2,4.7-5.7,12-7.8,17.6Z"/>
      <path d="M368.6,366.2c-2.9-.9-1.2-6.3-.8-8.5-5.5,7.3-.8.7,1-3.3,1.6-.2-3.2,10.1-.2,11.2,3.7.9,4.1-8.8,6.5-10.6-.7,2-2.7,11.5-6.3,11.2h0Z"/>
      <path d="M381.1,355.7c3.8.6,8.2-13.7,8.7-10.8,0,1.5-3.7,10.5-.9,10,4.3-2.9,4.9-11.9,9.1-4.4,10-5.3-3.3-32.2,1-18.8.2,3.5-4.7-9.1-.7-5.3,4.2,7.5,6.9,18.4-.5,24.7-1.8.4-1.8-5.4-3.5-2.8-1.2,1.5-4.9,10.2-7,6.3,2-15.3.5,1.8-6.2,1.2h0Z"/>
      <path d="M401.7,327.8c-1.4-3.7-3.2-7.9-3.6-11.6,1.1,3,3.8,9.4,3.6,11.6Z"/>
      <path d="M406.2,321.6c-1.9-1.1-5.4-6.3-4.5-7.4,7,12.5,0,.2-1.6-6.1,1.8.2,3.4,5.9,5.3,7.5-2.2-1-3.2-4.3-4.5-6.4.8,4.2,5.1,8.8,5.3,12.4h0Z"/>
      <path d="M409.9,307.4c-1.6-2.1-4.3-4.1-5.1-6.3,1.3,1.2,5.8,5.2,5.1,6.3Z"/>
      <path d="M361.6,371.9c-29.8-2.9-1.6-2.3,9.8-2.9,5.5-7.1-2.4,4,8.8-1.5,2.1.3,14.2-3.8,8.5-.2-.8,1.3,1.1.9,1.6.3,5.8-10.6,19.5-16.7,15.5-30.3,9.1,1.5,5.4-23.2,6.8-31.9,2.8,22.8-5.6,45.7-21.5,62.8-8.3-.3-20.2,2.2-29.5,3.6h0ZM355.2,370.5c16.8.7,17.2-.9,0,0h0ZM372.2,369.2c.6-.5,1.3-1.1,1.3-1.9-.8.3-1.1,1.2-1.3,1.9Z"/>
      <path d="M389.2,359.5c-1.1-.1-3.2-1.3-2.8-2.5,1-.2,2.2,2.7,3.4,1.4,2.6-3.4,2.3-8.5,3.3-12.2.9.7,1,5.5,3.2,3.1,2.8-6-2.4-22.1,6.7-14.5,1.6-.4,1.4-3.5,2.7-3.9.3,4.5-4.5,6.4-6.9,1.9-1.5,3.7,1.3,22.2-5.4,16.3-.5,2.5-1.2,9.9-4.2,10.5h0Z"/>
      <path d="M409.8,322.5c-2.3-2.2-5.7-8.6-5.1-10.7.8,2,4.7,13,5.4,8.3-1.7-16-17.7-41.5,1.6-14-4.2-7.9-20.8-38.8-4.9-21.9-.5,2.6-5.1-3.8-6.5-4.9,4.5,12,19.6,41.3,3.1,16,1.4,8,9,19.5,6.5,27.1h0Z"/>
      <path d="M420.9,254.4c-1.3-.7-.2-2.1.3-3-7.5,2.2,4.4-8.8,6.2-9.8,3.2-5,15.3-4.5,4-6.2,8.5-2.4,6.8,3.2,4.8,11.4,17.7-2.4-.5,5.6-1.5-.1,5.5-17.6-8.8,9.8-13.8,7.6h0ZM422.9,251.2c-1.1,4.1,10.4-10.3,13.4-13.4-6,2.1-9.1,8.9-13.4,13.4ZM419.6,251c3.6-1.1,5-5.1,7.2-7.8-2.5,2.3-5.9,4.9-7.1,7.8,0,0,0,0,0,0h0Z"/>
      <path d="M454.8,240.4c-1-.3-6.3-2.7-3.4-3.2,7.1,5.5,12.8-5,19.6-6.2,12.2-7.3-10.2,10-16.2,9.5h0Z"/>
      <path d="M468.3,237.6c.2-3.6,4-6.1,5.8-9.8-13.2,13.1,3.6-11,8.2-11.1,7.3-5.3-15.8,23.9-6.4,12,2.1,0-5.4,9.1-2.7,2.7-1.7,1.8-2.7,5.5-4.9,6.2h0ZM475.9,223.2c-1.6,2-3.1,4-4.7,6,5.9-4.4,15.1-18.4,4.7-6Z"/>
      <path d="M130.3,264.5c-3-2.4.8-13.6,0-17,4-2.7-3.1,16.4.8,16.5,4.8-.5,5.5-31.7,9.8-18.1,0,.9,1.9,3.8.7,3.5-5.4-21.3-4,17.7-11.2,15.2h0Z"/>
      <path d="M221,180.4c-6.9-3.3-13.3-7-18-13.3,7,12.3-6.7-.6-9.4-5,1.2,3.2,11.4,14.4,6.6,13.8-4.1-3.4-25.1-16.3-12.2-9.9-11.8-10.8,1-3.1,6.6,2-6-4.7-9.4-12.8-1.1-3.4-1.6-4-8-9.2-6.8-13.1,7.8,5.5,18.9,29.1,12.7,9.7,4.8,8.2,17.9,14.2,21.5,19.1h0Z"/>
      <path d="M228.7,186.1c-5.4-5.1-19.1-19.7-6.6-7.4-1.6-3.7,7.5,7.2,6.6,7.4Z"/>
      <path d="M232.4,184.7c-10.4-8.1-16.4-22.1-23.7-32.9,14.9,11.8,14.6,9.9,30,24.9-10.2-10,6.8-2.4,9.6,2.8-6.1-1.4-4.9-7-9.8-1.7-9.7-9.9-14.5-10.8-23.5-18.7,8.7,10.8,17.7,17.6,17.4,25.6h0ZM222.2,170.4c2.1,2,4.1,4.1,6.3,6-2.3-3.2-5.2-5.9-8-8.7.5.9,1.1,1.8,1.7,2.6Z"/>
      <path d="M242.8,174.5c-9.6-7-25.4-17.2-28.1-27.8,7.5,7.8,15.5,15.3,23.7,22.5h0c.9,1.3,7,4.7,4.5,5.3h0ZM239.4,171.5c-8-6.9-15.6-14.1-22.9-21.6,5.8,8.9,14.2,15.7,22.9,21.6Z"/>
      <path d="M253.5,182.1c-1.8-2.9-5.3-7.8-3.4-10,3.9,3.6-10.8-18.6-.8-8-5.1-6.5-3.3-10.5-8-16.7,8.5,1.8,16.9,19,24.6,26.4-7.5-3-13-16.9-20.6-22.7,3.2,5.5,2.9,10.2,7.3,15.5,3.4,4,1.8,8.3-1.7,2.3,1.4,2.1,6.3,16.7,2.6,13.2h0Z"/>
      <path d="M274.5,181.1c-7.9-6.6-14.2-13.5-20-22.6,2.5-2,8,9,11.8,10.4.3,4.3,11,10.3,8.1,12.2h0Z"/>
      <path d="M305.8,186.9c-8.4-3.5-32.2-34.1-31.5-23-1.3,0-3.6-7.6.9-4.1-3.6-4.1-20.9-22.1-8.4-11.8,8.5,7.4,13.5,15.1,6.5,2.1,1.7,2.1,3.4,4.4,5.2,6.4,0,0,0,0,0,0,4,4.5,15,14.9,3.5,6.6,5,8.5,22.7,17.5,23.8,23.8h0ZM280.5,160.5c.1.1.3.2.4.3-.7-.7-1.3-1.5-2-2.2.4.7.8,1.4,1.5,1.9Z"/>
      <path d="M303.4,174.9c-3.9-.2-12.2-4.1-9.3-8.3,9,0,34.8,1,12.3,2,11.7,1.1,6.2,4.4-2.2,2,6.3.9,4.4,4.7-.8,4.4ZM305,173.8c-.8-.4-7.7-3-10.4-4.6,2.4,3.1,6.5,4.8,10.4,4.6Z"/>
      <path d="M385.2,220.7c2.2-11.2,8.2-22.6,8-34.2-5.9,5.7-7.3,15.4-12.2,21.2-3-.7,10.5-18.4,2.2-11.1,3-3.7,6-6.3,9.6-11.3,4.2,7.8-4.2,29.5-7.7,35.4Z"/>
      <path d="M457.7,244c-1.4-.3-.2-4.9.5-3.2,2.9,6.9,17.7-17.7,22.2-22.2.5,3.4-18.2,25.9-22.7,25.4Z"/>
      <path d="M480.2,227.9c1.8-8.2,13.1-18.1,18.2-27.4-1.8,7.7-11.3,21.1-18.2,27.4ZM480.9,225.5c1.3-.7,1.8-2.5,2.8-3.6-.8.9-3.9,2.6-2.8,3.6ZM487.5,217.9c-1.1,1.7-2.2,3.4-3.3,5.1,4.2-4.5,7.2-9.9,10.2-15.3-2.3,3.4-4.7,6.7-6.9,10.2Z"/>
      <path d="M510.9,175.5c5.4-10.1,0-85.8,3.8-56.8,1.9,18.8,5.6,39.9-3.8,56.8Z"/>
      <path d="M103.7,262.8c-4.9-14.1-23.7-13.8-33-21.4,8.6.4,38.4,11.1,33,21.4Z"/>
      <path d="M155.8,269.9c-.7-7.6,5-17.6.2-24.5,5.5,5.2.3,17.9-.2,24.5Z"/>
      <path d="M147.1,299.2c-3.2-14.6,2.9-33.6,3.7-45.7-.6,14.6-4.5,33.7-3.7,45.7Z"/>
      <path d="M308.2,338.3c4.1-2.1,10.3-3.2,14.9-4-4.4,1.7-10.3,2.7-14.9,4Z"/>
      <path d="M302.1,329.9c1.6-1.4,8.2-3.7,9.1-2.4-3.2.2-6.3,1.8-9.1,2.4Z"/>
      <path d="M303.5,326.5c-.1-.9,5.1-3.5,4.5-2-1.5.4-3.1,2-4.5,2Z"/>
      <path d="M195.2,321.6c-5-1.9-10.8-2-15.8-2.3,3.5-.9,14.2.2,15.8,2.3Z"/>
      <path d="M192.7,321.4c-1.4-1.6-4.3-3.1-4.6-5.2.8,1.3,5.2,4.3,4.6,5.2Z"/>
      <path d="M123.1,374.3c-47-21-21.9-82.5-18.6-114.3,6.1,30.3-20.3,63-.5,93,.5,7.5,26.5,19.8,19.1,21.3Z"/>
      <path d="M95.5,253.1C52.1,237.2,6.6,201.3,5,152.6c6.7,49.3,51.9,82,90.5,100.5Z"/>
      <path d="M205.5,181c-40.7-28.6-60.7-83.2-78.9-127.8,22.5,42.6,40.2,96.4,78.9,127.8Z"/>
      <path d="M3.5,97.7C1.7,65.6,21.1,32.6,43.5,12.5,22,34.8,6.1,72.1,3.5,97.7Z"/>
      <path d="M91.2,17.7c-15.4-6.5-34.3-14.2-49.3-2.9,6.4-13.9,48.3-6.4,49.3,2.9Z"/>
      <path d="M128.8,61.9c-6.8-17.6-19.8-40.7-38.2-45.8,15.1-2.9,43.9,36.9,38.2,45.8Z"/>
      <path d="M316.8,165.9c-1.1-.7,5-3.5,2.7-1.7,39.7-43.3,24.8-7.4-2.7,1.7Z"/>
      <path d="M344.1,167.9c-8.2-10.2-23-.9-32-3.6,7.6-1.5,35.1-7.3,32,3.6Z"/>
      <path d="M338.6,149.5c26.8-43.3,43.8-112.5,91.5-134.5-45.3,32-61.5,90.7-91.5,134.5Z"/>
      <path d="M360.6,112.8c4.8-21.5,19.8-43,31.7-61.8-11,19.3-22,42.4-31.7,61.8Z"/>
      <path d="M423.7,19.3c-3.3-10,47.5-29.4,53.4-12.9-18.1-9.3-36.4,6.8-53.4,12.9Z"/>
      <path d="M514.5,141.2c-11.5-44.6-3.2-120-52.3-139.9,38.2-9.6,62.5,128.8,52.3,139.9Z"/>
      <path d="M516.9,142.4c-1.3-.5.9-7.5,1.8-4.9-1.1,1.4-.2,5-1.8,4.9Z"/>
      <path d="M424.8,260.5c63-19.4,90.9-59.6,91.8-124.8,9.5,59.2-35.6,119.7-91.8,124.8Z"/>
      <path d="M414.1,286.6c.2-20.1,19.3-37.1,37.3-38.3-4.1,9.8-29.2,9.2-31.8,25-3.6,2.5-1.6,17.1-5.6,13.4Z"/>
      <path d="M409.7,321.2c-1.4-17.3.4-41.9,12.3-53-12.3,10.6-5.5,64.7-12.3,53Z"/>
      <path d="M411.5,342.4c-.5-7.9-3.9-31.9.5-34.8-1.3,10.4,4.8,27.1-.5,34.8Z"/>
      <path d="M397.4,367.2c7.7-16.3,16.5-33.7,14.9-53.6,5.6,16,.3,43.7-14.9,53.6Z"/>
      <path d="M126.6,380.7c-1.7-.7,1.2-1.7,1.8-2.2-5.5-6.1,8.3,1.1-1.8,2.2Z"/>
      <path d="M303.8,252.1c-5.7-1.5-2.7-12.7,2.7-10.3,1,2.1-2.3,3.2-2.8,5.1,3,1.5,5.1,5.3,0,5.2h0Z"/>
      <path d="M206.7,247.6c-13.8-5.7,8.3-26.9-.4-4.9,3.5.3,5.1,6.2.4,4.9ZM206.9,234.9c.2,0,.4,0,.4-.2h0s-.3.1-.4.2h0Z"/>
      <path d="M228.6,249.5c-.1-3.8,2.4-8.4,2.5-12.5-2-27.4,6.2,7.6-2.5,12.5Z"/>
      <path d="M283.1,254.9c-2.5-12-1.8-27.2,3.7-37.2.3,9.1-4.7,20.3-2.7,30.2,0,1.9,2.5,7.7-1,7h0Z"/>
      <path d="M239.4,351.3c-12.3-6.5,8.4-26.2,5.1-11.5-.2.3.2,2.5-.5,1.6,2.1-6-1.4-3-5.3-1.2-4.7,5.5,9.4,7.3.7,11.1h0Z"/>
      <path d="M251.3,336.7c-7.9-1.7,2.3-3.5,4.5-1.2,0,2-3.3,1.3-4.5,1.2Z"/>
      <path d="M248.7,358.3c2.5-5.5-11.1-11-.8-8.5,3.8-.9,5.3,3.3,2.4,4.3,1.6,0-.2,7.2-1.6,4.2h0Z"/>
      <path d="M251.7,374.3c.8-7.4-7.4-23.9,4.1-24.8-7.3,5.8.9,17.8-4.1,24.8Z"/>
      <path d="M248.8,384.8c6-4.3-1.1-22.3,2-27.6,2.4,8.2-1.6,23.1,5.4,26.7-1.5,1.5-5.2.1-7.4,1h0Z"/>
      <path d="M260.7,386.4c-.9,0-4-1.3-1.8-1.6-2-2.2-8.4.3-8.4-1.3,2.3-1.9,13.4.5,10.1,2.9Z"/>
      <path d="M253.4,390.6c0-1.8-1.2-7.8.9-7.7-1.9,2.1.9,6.7-.9,7.7Z"/>
      <path d="M249.5,401c-5.9,0-7.7-1.4-10.3-3.6-2.9.4-10.8,1-10.8-2.6,8.5-3.4,15.7,6.1,24.2,5,12.1-.9,3.3,2.2-3,1.2Z"/>
      <path d="M256.9,400.5c14.6-2.5,10.7-8.8,24.5-8.2-2.6,1.9-7.8.7-10.9,3.3,9.7.3-10.7,4.6-13.6,5Z"/>
      <path d="M323.1,381.6c2.3-3.3,10-4.1,13.5-2.7-4.1.6-9.6.8-13.5,2.7Z"/>
      <path d="M324.7,380.7c6.9-3.7,25.3-10,27.2-1-8-8.1-18.8,0-27.2,1Z"/>
      <path d="M351.1,376.8c-.4,0-.8,0-1.2,0h0c-.7-.2-3.3.2-2.5-.7.5.1,5.2,0,3.7.7h0Z"/>
      <path d="M280.6,391.6c-11.4,0-22.9-11.5-32.1-7.7-6,4.1-9.8,3.2-1.8-1.1,11.7-5.7,22.9,8.2,35.4,6.9,23.9-1.9,18.7,2.6-1.5,1.9h0ZM244,385.6c1.1-.1,2-.8,2.8-1.4-.9-.3-2,1-2.8,1.4Z"/>
      <path d="M287.1,392.7c8-1.3,17.2-1,24.8-4.2-7,4-16.9,3.8-24.8,4.2Z"/>
      <path d="M232.8,390.5c2-1.8,6.1-1.8,6.1-5.2,1.5,3-4.1,4.9-6.1,5.2Z"/>
      <path d="M144.3,376.2c0-.6-.7-3.9.2-3.1-.2.7.8,3.7-.2,3.1Z"/>
      <path d="M133.4,381.3c-3.4-3.3-17.2-6.7-14.7-11.8,10.2,7.3-5.3-7.1-6.2-12.5,5.5,6.5,15.9,15.7,21.7,21.2-10.5,1.4,27.1,0,36-1.5-1.5,9.2-31.4,1.1-36.8,4.6h0ZM158.3,379.9c7.1-.5,9.5-1.5.9-1-7.2-.7-9.5.8-.9,1ZM128.5,376.7c-.2-.2-.3-.5-.6-.4.2.1.4.3.6.4ZM125.7,373.3c-2.4-3.5-9.5-12.8-10.8-12.6,4.2,3.5,6.4,9.3,10.8,12.6Z"/>
      <path d="M163.3,376.4c-2-.8-1.7-3.7-1.7-5.5,1.1.8,3.9,3.8,6.5,3.9-.5.9-3.6-.7-4.3-1.2.4.8.8,2.7-.6,2.8ZM163.3,375.9c1.2-1-.4-3-1.2-3.9,0,1.3,0,3.2,1.2,3.9Z"/>
      <path d="M185,380.5c-3.7-4.7-7.2-1.1-7.9-8.8-5.6,6.8-7.7-1.3-6.1-6.2,2.1,3.2-.7,11.8,5.5,5.3,3.2-1.1,1.4,6.5,3.8,6,2-2.3,4.9,3,4.7,3.7h0Z"/>
      <path d="M316.5,386.4c2.2-7.5,6.6-6.5-1.5-6.4,1.7-.6,7-1.2,7.1-2.8-2.3-.8-6.5,2.9-7.8.7,6.7-.7,2.8-2.9-1.2-3.7,3.2-1.3,10.7,1.1,2.3.2,4.3,1.2,2.8,2.6,7.4,2.8-2.3,2.9,3.5-.9,3.3.9-5.3.3-7.3,4.7-9.6,8.4h0Z"/>
      <path d="M320.5,376.6c-4.7-2.1-10.6-4.2-13.9-8,3.6,3,11.3,5.7,13.9,8Z"/>
      <path d="M331.3,374.6c-5.2-2.2-12-1-16.6-4,4.2,1.9,14.1,1.4,16.6,4Z"/>
      <path d="M329.3,376.7c-10.2-1.5-5-.3-1.2-6.7-2-3.6,2.9-4.5,1.1-.3.3.3.5.8.9,1,.2-5.6-4.3-9.7,4.5-8.5.5-2.5-4.7-11.4,0-10.9,2.7,5.9-1.7,26.1,0,11.5-8.7-1.6-1.8,4.8-3.7,8.8-12.1,2.8,2.3,4.3-1.7,5.2h0ZM335.2,361.6c0,.2,0,.3,0,.5,1.5.3-.2-1.8,0-.5ZM334.8,359.4c-.2-2.6.3-5.7-.8-8.1-1.5,2.2-.2,5.8.8,8.1Z"/>
      <path d="M335.5,365.6c.5-2.3-.5-4.8-.4-6.8.9,1,1.7,6.8.4,6.8Z"/>
      <path d="M352.7,379.4c-6.2-2.6-16.8.7-20.8-1.4,4.2-2.4,8.1-2.5,12.7-1.5-5.7-2.4-1.1-1.9,2-.9-7.4,1,7.8-.5,12,.5,12.5,2.9-6.2,0-11.2,1.1,1.2.5,8.2.2,5.3,2.2h0ZM336.7,377.4c.7-.2,3.9-.3,2.2-.4h0c-.7,0-1.3,0-1.9.3h0c-.1,0-.2,0-.3.1h0Z"/>
      <path d="M368.1,378.5c-3.3.5-13.5-2.8-5.6-1.1,5.5,1.5,17.4-1.4,5.6,1.1Z"/>
      <path d="M365.1,374.7c-1.7-3.4-8-2.8-9.1-4.6,5.7,1.2,12.4-.9,17.4,2.9-2.5-.2-18.1-5.7-8.2,1.2,1.3-.2,2.4-1,3.6-1.5.9.7-2.8,2-3.7,2h0Z"/>
      <path d="M381.7,374.2c.2-2.3-1.7.5-3-.2,2.1-1,7.6-4.4,9-4.1-3.4,2.7,11.4-4.3-.7,3.5,8.9-.6,8.8-9.6,13.5-14.2.9,6.7-6.5,13.4-13.1,14.8-3,0,1.2-2.8,2-3.3-2.7.8-6,1.2-7.5,3.5h0Z"/>
      <path d="M395.3,369.2c0-.3.5-.3.5,0s-.5.3-.5,0Z"/>
      <path d="M365.8,156.2c3.6-5.4,9.4-10.8,14.4-14.9-4.4,4.8-10,10-14.4,14.9Z"/>
      <path d="M362.7,168.9c1.6-5.7,5.7-12,9.5-16.4-3.2,5.1-7,11-9.5,16.4Z"/>
      <path d="M358.6,161.5c.4-6.4,4.7-12.5,8.2-17.8-1.7,4.4-7.1,11.9-8.2,17.8Z"/>
      <path d="M353.9,154.8c-.9-6.7,6.6-15.2,10.8-17.4-5.2,4.6-10.5,11.6-10.8,17.4Z"/>
      <path d="M349.8,156c-.2-4,7.2-15.5,10.8-13.6-1.9,2.2-5,7.6-6.8,7.9,12.5-14.6-2.2-3.2-4,5.6h0Z"/>
      <path d="M408.8,113.3c2.2-6,8-11.5,11.5-17.2-1.3,1.1-6.8,5.6-6.6,1.6,1.5-4.5,11.2-10.7,3.6-3.5-6.3,7.2,1.2,2.6,4.5-.1-1.7,5.8-9.2,13.8-13,19.3h0Z"/>
      <path d="M408.4,144.6c-1.6-5.8,14.7-21.1,3.5-17.4-2-2.6,5.2-12,6.7-12.8-1.2,2.9-12.4,16-2.8,11.2,3.9,2.5-7,13.8-7.3,19h0Z"/>
      <path d="M409.8,241.8c-2.7-3.5,0-10.5-3.9-13.9-2.1-3.5-6.4-6.6-4.8-11.2,7.1-19.7-7.8.5,1.3-21.6,3.2-13.4-8.1,1,1.8-21.8-8.9,3.3-.6-8.9,1-11.1-9.8,19.1-1,5.5-.8,12.9,0,2.9-7.5,13.5-2.1,11.8,8.3,1.6-8.2,21.4,2.4,18-5.1,19.7,5.1,21.5,5,36.9h0Z"/>
      <path d="M342.9,278.1c-3.6-2.2-8.4-4.3-11-7.4,2.8,1.9,10.1,5.3,11,7.4Z"/>
      <path d="M342.8,268.1c-2.2-1.9-5.5-3.3-7-5.4,1.7.9,7.4,4.1,7,5.4Z"/>
      <path d="M345.2,260.6c-4-2.3-8.5-5.1-11.3-8.5,3,2.6,9.5,6.4,11.3,8.5Z"/>
      <path d="M339.5,244.2c1.7-.7,8.8-2.1,9.3-.9-3.1,0-6.5,1.1-9.3.9Z"/>
      <path d="M214.2,272.4c0-.3.5-.3.5,0s-.5.3-.5,0Z"/>
      <path d="M202,290.8c1-6.4,8.5-11.7,12.3-17.1-1.8,4.4-10.9,12-12.3,17.1Z"/>
      <path d="M210.2,291.2c.1-2.3,2-12.5,3.8-11.8-1.2,3.7-1.6,8.9-3.8,11.8Z"/>
      <path d="M236.5,380.8c.4-1.1,3.9-7.3,4.9-5.1-1.8,0-2.9,4.2-4.9,5.1Z"/>
      <path d="M225.7,304.1c-4.9-12.4,2.7,6.3-.1-9.3,1-4.6,5.9,5.4,6.6,6.5.3.6,1.8,2.7.5,2.2-11.6-21-3.2,0-7,.5h0Z"/>
      <path d="M239.2,280.7c-2.2-2.9-4.3-6.9-4.3-10.4.6,3.1,3.9,8.4,4.3,10.4Z"/>
      <path d="M240.9,274.7c-.5-1.5-2.9-2.6-2.4-3.8.8,0,3.7,3.9,2.4,3.8Z"/>
      <path d="M276.5,301.7c1.3-8.3.6-1.5-5.3-2.1-1.6-3.8,4.5-9.2,7.2-11.2-1.4,2.7-4.9,5-6.3,8.1-2.9,6.8,6.7-2.1,8.1-2-1.5,2-2.2,5.4-3.6,7.2h0Z"/>
      <path d="M110,305.5c-4.1-5.3,8.7-16.5,12.1-18-4.9,4.7-14,12.1-12.1,18Z"/>
      <path d="M114,320.8c.2-3,2.9-6.1,4-9.1.6,1.7-3.1,6.7-4,9.1Z"/>
      <path d="M115.3,339.8c.3-5.8,2.3-13.8,4.6-19.1-1,5.8-2.9,13.4-4.6,19.1Z"/>
    </g>
  </g>
</svg>