<svg width="1288" height="433" viewBox="0 0 1288 433" fill="none" xmlns="http://www.w3.org/2000/svg">
<path d="M131.216 137.613L163.148 121.96V290.717L131.216 320.161V137.613Z" fill="#B4BB91"/>
<path d="M164.425 292.135L269.123 291.183L250.087 315.93L192.027 325.872L133.642 322.963L164.425 292.135Z" fill="#778561"/>
<path d="M162.463 114.417L126.844 137.402V318.926C126.844 321.936 130.43 323.501 132.637 321.454L167.939 288.704" stroke="black" stroke-width="16.4658" stroke-linecap="round"/>
<mask id="path-4-inside-1_355_17377" fill="white">
<path fill-rule="evenodd" clip-rule="evenodd" d="M240.092 106.173H221.914L161.315 106.173V300.081H221.914H226.724H240.092C293.639 300.081 337.046 256.673 337.046 203.127C337.046 149.58 293.639 106.173 240.092 106.173Z"/>
</mask>
<path fill-rule="evenodd" clip-rule="evenodd" d="M240.092 106.173H221.914L161.315 106.173V300.081H221.914H226.724H240.092C293.639 300.081 337.046 256.673 337.046 203.127C337.046 149.58 293.639 106.173 240.092 106.173Z" fill="#F3F6F1"/>
<path d="M221.914 106.173V87.9938V106.173ZM161.315 106.173L161.315 87.9938L143.136 87.9938V106.173H161.315ZM161.315 300.081H143.136V318.26H161.315V300.081ZM221.914 124.352H240.092V87.9938H221.914V124.352ZM161.315 124.352L221.914 124.352V87.9938L161.315 87.9938L161.315 124.352ZM179.494 300.081V106.173H143.136V300.081H179.494ZM221.914 281.902H161.315V318.26H221.914V281.902ZM226.724 281.902H221.914V318.26H226.724V281.902ZM240.092 281.902H226.724V318.26H240.092V281.902ZM318.868 203.127C318.868 246.633 283.599 281.902 240.092 281.902V318.26C303.679 318.26 355.225 266.713 355.225 203.127H318.868ZM240.092 124.352C283.599 124.352 318.868 159.62 318.868 203.127H355.225C355.225 139.541 303.679 87.9938 240.092 87.9938V124.352Z" fill="black" mask="url(#path-4-inside-1_355_17377)"/>
<path d="M294.195 197.091C294.195 197.091 286.038 231.568 249.374 231.568C212.711 231.568 201.106 200.539 201.106 197.091" stroke="black" stroke-width="19.7013" stroke-linecap="round" stroke-linejoin="round"/>
<path d="M118.555 323.833C118.555 323.833 193.186 324.695 206.822 324.354C232.499 323.713 249.029 321.035 265.011 307.127C278.551 295.346 310.11 257.721 310.11 257.721" stroke="black" stroke-width="15.7906"/>
<path d="M522.182 333H443.381V100.459H523.771C546.859 100.459 566.691 105.115 583.269 114.425C599.922 123.66 612.715 136.945 621.647 154.28C630.58 171.614 635.046 192.355 635.046 216.503C635.046 240.726 630.542 261.542 621.534 278.952C612.602 296.363 599.695 309.723 582.815 319.034C566.01 328.345 545.799 333 522.182 333ZM485.507 296.552H520.138C536.337 296.552 549.849 293.6 560.673 287.695C571.498 281.715 579.636 272.821 585.086 261.012C590.536 249.128 593.261 234.291 593.261 216.503C593.261 198.714 590.536 183.953 585.086 172.22C579.636 160.411 571.574 151.592 560.901 145.764C550.303 139.859 537.132 136.907 521.387 136.907H485.507V296.552ZM733.342 336.406C716.31 336.406 701.549 332.659 689.059 325.165C676.569 317.671 666.88 307.187 659.992 293.713C653.179 280.239 649.772 264.494 649.772 246.478C649.772 228.463 653.179 212.68 659.992 199.13C666.88 185.58 676.569 175.059 689.059 167.565C701.549 160.071 716.31 156.324 733.342 156.324C750.374 156.324 765.134 160.071 777.624 167.565C790.114 175.059 799.766 185.58 806.578 199.13C813.467 212.68 816.911 228.463 816.911 246.478C816.911 264.494 813.467 280.239 806.578 293.713C799.766 307.187 790.114 317.671 777.624 325.165C765.134 332.659 750.374 336.406 733.342 336.406ZM733.569 303.478C742.804 303.478 750.525 300.942 756.732 295.871C762.939 290.723 767.557 283.835 770.585 275.205C773.688 266.576 775.24 256.963 775.24 246.365C775.24 235.692 773.688 226.04 770.585 217.411C767.557 208.706 762.939 201.78 756.732 196.632C750.525 191.485 742.804 188.911 733.569 188.911C724.107 188.911 716.234 191.485 709.951 196.632C703.744 201.78 699.089 208.706 695.985 217.411C692.958 226.04 691.444 235.692 691.444 246.365C691.444 256.963 692.958 266.576 695.985 275.205C699.089 283.835 703.744 290.723 709.951 295.871C716.234 300.942 724.107 303.478 733.569 303.478ZM973.655 204.694L936.185 208.781C935.125 204.997 933.27 201.439 930.621 198.108C928.047 194.778 924.565 192.09 920.175 190.046C915.784 188.003 910.41 186.981 904.051 186.981C895.498 186.981 888.306 188.835 882.478 192.544C876.725 196.254 873.886 201.06 873.962 206.965C873.886 212.036 875.741 216.162 879.526 219.341C883.386 222.52 889.745 225.132 898.601 227.176L928.35 233.534C944.852 237.092 957.115 242.732 965.139 250.453C973.238 258.174 977.326 268.279 977.402 280.769C977.326 291.745 974.109 301.434 967.75 309.837C961.467 318.163 952.724 324.673 941.521 329.367C930.318 334.06 917.45 336.406 902.916 336.406C881.569 336.406 864.386 331.94 851.366 323.008C838.347 314 830.588 301.472 828.09 285.425L868.171 281.564C869.988 289.436 873.848 295.379 879.753 299.391C885.657 303.403 893.34 305.408 902.802 305.408C912.567 305.408 920.402 303.403 926.306 299.391C932.286 295.379 935.276 290.421 935.276 284.516C935.276 279.52 933.346 275.395 929.486 272.14C925.701 268.885 919.796 266.387 911.772 264.646L882.024 258.401C865.295 254.919 852.918 249.052 844.894 240.801C836.87 232.475 832.896 221.953 832.972 209.236C832.896 198.487 835.811 189.176 841.715 181.304C847.695 173.355 855.984 167.224 866.581 162.909C877.255 158.519 889.555 156.324 903.484 156.324C923.922 156.324 940.007 160.676 951.74 169.381C963.549 178.086 970.854 189.857 973.655 204.694ZM1106.47 259.65V158.594H1147.57V333H1107.72V302.002H1105.9C1101.96 311.767 1095.49 319.753 1086.48 325.96C1077.55 332.167 1066.54 335.271 1053.44 335.271C1042.01 335.271 1031.91 332.735 1023.13 327.663C1014.42 322.516 1007.61 315.06 1002.69 305.295C997.768 295.454 995.308 283.57 995.308 269.642V158.594H1036.41V263.283C1036.41 274.335 1039.44 283.116 1045.49 289.626C1051.55 296.136 1059.5 299.391 1069.34 299.391C1075.4 299.391 1081.26 297.915 1086.94 294.962C1092.62 292.01 1097.27 287.62 1100.9 281.791C1104.61 275.887 1106.47 268.506 1106.47 259.65Z" fill="black"/>
</svg>
