<svg xmlns="http://www.w3.org/2000/svg" viewBox="0 0 625.42 113.39"><defs><style>.cls-1{fill:#fff;}</style></defs><g id="Layer_2" data-name="Layer 2"><g id="Layer_1-2" data-name="Layer 1"><path class="cls-1" d="M247.28,69.72a9.71,9.71,0,0,1-3,2.49,17.79,17.79,0,0,1-9.1,2.11q-7.51,0-11.33-4.53a17.87,17.87,0,0,1-3.64-10l41-.09v-4.1A31.23,31.23,0,0,0,258,40.84a23.67,23.67,0,0,0-9.21-9.66,28.32,28.32,0,0,0-14.24-3.48,27,27,0,0,0-14.14,3.7,25.25,25.25,0,0,0-9.57,10.22,31.9,31.9,0,0,0-3.42,15,30.46,30.46,0,0,0,3.52,14.85,26.4,26.4,0,0,0,9.78,10.17A27.63,27.63,0,0,0,235,85.38q10.71,0,17.78-5.09a21.85,21.85,0,0,0,8.78-14H249.08A9.62,9.62,0,0,1,247.28,69.72Zm-25.56-23a12.17,12.17,0,0,1,4.9-6v0a15.1,15.1,0,0,1,8-2,13.45,13.45,0,0,1,9.66,3.42,11.93,11.93,0,0,1,3.6,9.06H220.46A19.65,19.65,0,0,1,221.72,46.72Z"/><polygon class="cls-1" points="301.6 29.35 290 47.91 277.97 29.35 262.28 29.35 281.06 57.18 262.28 83.91 277.64 83.91 289.02 65.91 300.72 83.91 316.18 83.91 298.18 57.07 316.74 29.35 301.6 29.35"/><path class="cls-1" d="M368.3,31.24a25.12,25.12,0,0,0-13.53-3.55,24.32,24.32,0,0,0-11.14,2.6,16.64,16.64,0,0,0-7.51,7.35l-.89-8.29H322.76v84h13.47V76.63a17,17,0,0,0,7.45,6.4,26,26,0,0,0,11.09,2.32A23.29,23.29,0,0,0,377.31,71.1a36.26,36.26,0,0,0,3-15.14,32.4,32.4,0,0,0-3.21-14.9A24.07,24.07,0,0,0,368.3,31.24Zm-3.26,34a13.67,13.67,0,0,1-5.18,5.91,16.56,16.56,0,0,1-16.32,0,14.29,14.29,0,0,1-5.36-5.91,19,19,0,0,1-1.87-8.62,19.19,19.19,0,0,1,1.87-8.72,14,14,0,0,1,5.36-5.86A15.31,15.31,0,0,1,351.65,40a15.08,15.08,0,0,1,8.21,2.15A13.62,13.62,0,0,1,365,48a20.11,20.11,0,0,1,1.77,8.61A20,20,0,0,1,365,65.25Z"/><path class="cls-1" d="M431.54,37.75a17.05,17.05,0,0,0-7.79-7.46,26.66,26.66,0,0,0-24.74.95,23.93,23.93,0,0,0-9,9.82A32.81,32.81,0,0,0,386.81,56a36.27,36.27,0,0,0,3,15.14,23.4,23.4,0,0,0,22.4,14.25,22.11,22.11,0,0,0,11.49-2.87,20.69,20.69,0,0,0,7.39-7.07l.88,8.51h12.49V29.35H432.32Zm-2.6,27.56a14.3,14.3,0,0,1-5.35,5.9,15.55,15.55,0,0,1-8.21,2.1,14.82,14.82,0,0,1-8.05-2.15,14.09,14.09,0,0,1-5.25-5.91,19.4,19.4,0,0,1-1.82-8.62A19.38,19.38,0,0,1,402.08,48a14,14,0,0,1,5.3-5.91A15.13,15.13,0,0,1,415.49,40a15.48,15.48,0,0,1,8.13,2.1A14,14,0,0,1,429,47.91a19.33,19.33,0,0,1,1.87,8.72h0A19,19,0,0,1,428.94,65.31Z"/><path class="cls-1" d="M487.88,27.7A22.69,22.69,0,0,0,477.67,30a17.3,17.3,0,0,0-7.24,6.4l-1.11-7.07H456.85V83.89h13.47V54.51a15.29,15.29,0,0,1,3.54-10.59,12.47,12.47,0,0,1,4.47-3.09,12.27,12.27,0,0,1,5.35-.89,10.81,10.81,0,0,1,8.4,3.36q3.09,3.36,3.09,10.22V83.89h13.47V50.32q0-10.51-5.23-16.57T487.88,27.7Z"/><path class="cls-1" d="M547.68,52.76l-9.8-2.31q-7.08-1.66-7.07-6.18A5.82,5.82,0,0,1,533,39.51a9.61,9.61,0,0,1,6.18-1.76,8.75,8.75,0,0,1,6.18,2,7.24,7.24,0,0,1,1.72,2.54,7.34,7.34,0,0,1,.5,3h12.8a17.26,17.26,0,0,0-2.74-9.28,17,17,0,0,0-7.23-6.18,24,24,0,0,0-10.71-2.21,28.36,28.36,0,0,0-11.15,2.05,17.59,17.59,0,0,0-7.67,5.91,15.08,15.08,0,0,0-2.82,9.16A14,14,0,0,0,521.68,55c2.39,2.47,6,4.25,10.94,5.37l9.82,2.31a8.93,8.93,0,0,1,5,2.32,5.3,5.3,0,0,1,1.36,3.53,5.55,5.55,0,0,1-2.49,4.75A12.68,12.68,0,0,1,539,75.07,10.86,10.86,0,0,1,531.88,73a7.22,7.22,0,0,1-2-2.52,7.13,7.13,0,0,1-.69-3.11H516.41a16.13,16.13,0,0,0,6,13q6,5,16.18,5a30.92,30.92,0,0,0,11.92-2.14A18.21,18.21,0,0,0,558.6,77a16,16,0,0,0,2.87-9.57c0-4.2-1.16-7.42-3.47-9.71A21.2,21.2,0,0,0,547.68,52.76Z"/><path class="cls-1" d="M621.62,41.56a26.78,26.78,0,0,0-10.32-10.1,32.91,32.91,0,0,0-30.09,0,26.59,26.59,0,0,0-10.38,10.1,29.3,29.3,0,0,0-3.76,15,29.12,29.12,0,0,0,3.75,15A26.62,26.62,0,0,0,581.2,81.61a32.81,32.81,0,0,0,30.08,0A26.76,26.76,0,0,0,621.61,71.5a29.14,29.14,0,0,0,3.8-15A29.33,29.33,0,0,0,621.62,41.56Zm-11.7,23.69a14.54,14.54,0,0,1-5.47,5.85,15.78,15.78,0,0,1-8.21,2.1,15.42,15.42,0,0,1-8.12-2.1,15,15,0,0,1-5.47-5.85,17.9,17.9,0,0,1-2-8.73,17.9,17.9,0,0,1,2-8.78A15.21,15.21,0,0,1,588.12,42a15.42,15.42,0,0,1,8.12-2.1,15.78,15.78,0,0,1,8.21,2.1,14.72,14.72,0,0,1,5.47,5.79,18.58,18.58,0,0,1,2,8.78A18.36,18.36,0,0,1,609.92,65.25Z"/><path class="cls-1" d="M29,82.63A38,38,0,0,1,54.19,18.82V.06a56.69,56.69,0,0,0,0,113.27V94.56A38,38,0,0,1,29,82.63Z"/><path class="cls-1" d="M79.4,60.85C80.68,59.43,81.9,58,83,56.63c-1.18-1.47-2.47-3-3.84-4.44a58.07,58.07,0,0,0-12.74-10.8c-3.62-2.15-6.91-3.23-9.79-3.23a18.49,18.49,0,0,0-18.46,18.5v0A18.51,18.51,0,0,0,56.65,75.16c2.9,0,6.24-1.11,9.9-3.31A59,59,0,0,0,79.4,60.85Z"/><path class="cls-1" d="M159.26,24.7c6.67-4,13.31-6,19.73-6V0c-9.9,0-19.83,2.93-29.52,8.73a96.89,96.89,0,0,0-21.45,18,140.47,140.47,0,0,0-10.2,12.61,137.32,137.32,0,0,0-10.2-12.63,96.44,96.44,0,0,0-21.45-18A58.09,58.09,0,0,0,59.6.09v18.8A40.24,40.24,0,0,1,76.4,24.7,77.1,77.1,0,0,1,93.53,39.06,124.85,124.85,0,0,1,107,56.69,123.63,123.63,0,0,1,93.79,74,78.42,78.42,0,0,1,76.56,88.59a40.76,40.76,0,0,1-17,5.91v18.79a58.35,58.35,0,0,0,26.57-8.64,96.17,96.17,0,0,0,21.45-18,142.6,142.6,0,0,0,10.17-12.58l.25-.4,3.26,5c2,2.58,4.29,5.31,6.76,8a97.9,97.9,0,0,0,21.45,18c9.69,5.79,19.62,8.72,29.52,8.72V94.65c-6.42,0-13.06-2-19.73-6a78.34,78.34,0,0,1-17.13-14.36A121.55,121.55,0,0,1,132,61.62l-3.21-5.06A126.12,126.12,0,0,1,142.09,39,77.18,77.18,0,0,1,159.26,24.7Z"/></g></g></svg>