<?xml version="1.0" encoding="UTF-8"?>
<svg id="Layer_1" xmlns="http://www.w3.org/2000/svg" version="1.1" viewBox="0 0 600 706.16">
  <!-- Generator: Adobe Illustrator 29.6.0, SVG Export Plug-In . SVG Version: 2.1.1 Build 207)  -->
  <defs>
    <style>
      .st0 {
        fill: #0062ff;
        fill-rule: evenodd;
      }
    </style>
  </defs>
  <path class="st0" d="M0,642.52c0,38.6,25.05,63.64,63.64,63.64h185.92c110.92,0,201.64-37.53,263.32-103.23H0v39.59ZM249.56,0H63.64C25.05,0,0,25.03,0,63.63v39.59h512.89C451.21,37.53,360.48,0,249.56,0ZM411.83,453.71c0,31.23,20.34,51.48,51.71,51.48h111.4c12.63-31.34,21.11-65.79,25.06-102.97h-136.46c-31.36,0-51.71,20.26-51.71,51.49ZM257.41,252.73c0,31.23,20.34,51.48,51.71,51.48h290.88c-3.95-37.18-12.43-71.63-25.06-102.97h-265.82c-31.37,0-51.71,20.26-51.71,51.48ZM309.06,453.71c0-31.23-20.34-51.49-51.69-51.49H0v102.97h257.37c31.35,0,51.69-20.26,51.69-51.48ZM154.64,252.73c0-31.23-20.34-51.48-51.69-51.48H0v102.97h102.95c31.35,0,51.69-20.26,51.69-51.48Z"/>
</svg>