<svg xmlns="http://www.w3.org/2000/svg" width="76" height="120" viewBox="0 0 76 120">
    <path fill="#E6C3A5" fill-rule="evenodd" d="M43.405 40.666a3.124 3.124 0 0 1 0-4.377l13.687-13.86a3.03 3.03 0 0 1 4.326 0l13.684 13.86a3.118 3.118 0 0 1 0 4.377l-13.684 13.86a3.03 3.03 0 0 1-4.326 0l-13.687-13.86zm-7.567-7.66l-13.685-13.86a3.116 3.116 0 0 1 0-4.38L35.838.906a3.031 3.031 0 0 1 4.322 0l13.69 13.86a3.122 3.122 0 0 1 0 4.38l-13.69 13.86a3.031 3.031 0 0 1-4.322 0zm0 10.945a3.031 3.031 0 0 1 4.322 0l13.69 13.86a3.122 3.122 0 0 1 0 4.38L40.16 76.05a3.025 3.025 0 0 1-4.322 0L22.153 62.19a3.116 3.116 0 0 1 0-4.38l13.685-13.86zM14.584 54.527L.897 40.667a3.122 3.122 0 0 1 0-4.38L14.584 22.43a3.025 3.025 0 0 1 4.322 0l13.691 13.857a3.128 3.128 0 0 1 0 4.38l-13.69 13.86a3.031 3.031 0 0 1-4.323 0zm46.832 10.945l13.685 13.86a3.116 3.116 0 0 1 0 4.38L61.416 97.574a3.031 3.031 0 0 1-4.322 0l-13.69-13.86a3.128 3.128 0 0 1 0-4.38l13.69-13.86a3.031 3.031 0 0 1 4.322 0zM40.16 86.994l13.688 13.86a3.116 3.116 0 0 1 0 4.38l-13.688 13.86a3.031 3.031 0 0 1-4.322 0l-13.687-13.86a3.122 3.122 0 0 1 0-4.38l13.687-13.86a3.031 3.031 0 0 1 4.322 0zm-7.564-7.66a3.124 3.124 0 0 1 0 4.377L18.91 97.575a3.035 3.035 0 0 1-4.326 0L.896 83.71a3.124 3.124 0 0 1 0-4.377l13.687-13.86a3.03 3.03 0 0 1 4.326 0l13.687 13.86z"/>
</svg>
