<svg xmlns="http://www.w3.org/2000/svg" xmlns:xlink="http://www.w3.org/1999/xlink" viewBox="0 0 80 34"><g><path d="M 0 0 L 80 0 L 80 34 L 0 34 Z" fill="transparent"></path><path d="M 4.589 17.283 C 7.442 17.283 9.265 15.846 9.265 13.473 C 9.265 11.818 8.299 10.968 7.003 10.469 L 4.369 9.401 C 3.558 9.075 3.272 8.682 3.272 8.074 C 3.272 7.377 3.864 6.919 4.895 6.919 C 6.169 6.919 7.354 7.616 7.838 9.118 L 8.803 9.118 L 8.803 6.572 C 7.969 6.115 6.455 5.745 5.269 5.745 C 2.656 5.745 0.791 7.095 0.791 9.381 C 0.791 11.123 2.064 12.016 3.403 12.517 L 5.73 13.452 C 6.542 13.758 6.806 14.149 6.806 14.758 C 6.806 15.694 5.928 16.021 5.006 16.021 C 3.469 16.021 2.174 15.042 1.778 13.408 L 0.768 13.408 L 0.768 16.238 C 1.933 17.023 3.359 17.283 4.589 17.283 Z M 23.56 16.085 C 22.395 16.02 21.957 15.65 21.957 14.561 L 21.957 6.027 L 21.21 6.027 L 17.082 6.658 L 17.082 7.573 C 18.269 7.573 18.751 7.746 18.751 8.814 L 18.751 14.039 C 18.465 14.779 17.742 15.237 16.841 15.237 C 15.59 15.237 15.128 14.431 15.128 13.168 L 15.128 6.027 L 14.382 6.027 L 10.255 6.614 L 10.255 7.55 C 11.44 7.55 11.901 7.746 11.901 8.814 L 11.901 13.691 C 11.901 16.107 13.263 17.283 15.326 17.283 C 16.929 17.283 18.51 16.303 19.125 14.322 L 19.299 14.365 C 19.125 14.823 18.97 15.453 18.97 16.064 L 18.97 17 L 23.559 17 L 23.559 16.085 Z M 37.034 16.085 C 35.848 16.02 35.431 15.65 35.431 14.561 L 35.431 0.453 L 34.465 0.453 L 29.965 1.629 L 29.965 2.522 C 30.315 2.456 30.645 2.434 30.974 2.434 C 31.786 2.434 32.203 2.761 32.203 3.61 L 32.203 6.027 C 31.75 5.847 31.265 5.759 30.777 5.766 C 27.527 5.766 24.651 8.008 24.651 12.145 C 24.651 15.237 26.408 17.261 28.976 17.261 C 30.93 17.261 32.072 16.042 32.622 14.3 L 32.775 14.365 C 32.562 14.968 32.443 15.599 32.423 16.237 L 32.423 17 L 37.033 17 L 37.033 16.085 Z M 32.203 14.147 C 31.918 14.627 31.369 15.04 30.469 15.04 C 28.911 15.04 27.989 13.473 27.989 11.1 C 27.989 8.117 29.283 6.854 30.909 6.854 C 31.48 6.854 31.896 6.985 32.203 7.247 L 32.203 14.149 Z M 43.765 17.261 C 46.992 17.261 49.56 15.062 49.56 11.535 C 49.56 7.987 46.991 5.766 43.765 5.766 C 40.537 5.766 37.968 7.987 37.968 11.535 C 37.968 15.062 40.537 17.261 43.765 17.261 Z M 43.765 16.15 C 42.161 16.15 41.437 14.691 41.437 11.535 C 41.437 8.378 42.139 6.876 43.765 6.876 C 45.367 6.876 46.07 8.378 46.07 11.535 C 46.07 14.691 45.367 16.151 43.765 16.151 Z M 33.33 26.03 L 33.44 26.03 C 33.485 26.64 33.594 26.988 33.923 27.728 L 36.338 32.975 L 37.721 32.975 L 41.168 24.201 C 41.52 23.156 41.827 22.873 42.639 22.807 L 42.639 21.894 L 38.6 21.894 L 38.6 22.808 C 39.521 22.851 39.895 22.96 39.895 23.636 C 39.895 23.874 39.829 24.114 39.697 24.397 L 38.205 27.946 C 37.963 28.534 37.853 29.034 37.831 29.645 L 37.721 29.645 C 37.721 28.991 37.633 28.491 37.414 27.946 L 36.031 24.615 C 35.833 24.135 35.723 23.831 35.723 23.613 C 35.723 22.982 36.053 22.851 36.975 22.808 L 36.975 21.894 L 31.003 21.894 L 31.003 22.808 C 31.552 22.873 31.683 22.96 32.101 23.831 L 32.541 24.789 L 31.135 28.033 C 30.96 28.447 30.849 29.013 30.806 29.622 L 30.696 29.622 C 30.673 28.882 30.565 28.359 30.367 27.881 L 28.896 24.376 C 28.763 24.049 28.677 23.788 28.677 23.57 C 28.677 23.069 28.939 22.851 29.554 22.808 L 29.554 21.894 L 23.758 21.894 L 23.758 22.808 C 24.527 22.894 24.702 23.026 25.054 23.853 L 29.29 32.975 L 30.696 32.975 L 32.782 27.751 C 33.111 26.901 33.242 26.531 33.33 26.03 Z M 51.577 21.633 C 49.734 21.633 48.526 22.873 48.197 24.832 L 47.934 26.466 L 47.758 26.443 C 47.867 25.877 47.933 24.724 47.933 24.135 L 47.933 21.894 L 46.835 21.894 L 43.256 23.113 L 43.256 24.027 C 43.498 24.005 43.784 23.984 43.959 23.984 C 44.618 23.984 44.969 24.244 44.969 24.877 L 44.969 30.515 C 44.969 31.581 44.595 31.865 43.323 31.952 L 43.323 32.867 L 50.435 32.867 L 50.435 31.952 C 48.79 31.886 48.175 31.713 48.175 30.428 L 48.175 27.25 C 48.175 25.268 49.338 24.789 50.502 24.789 C 50.962 24.789 51.313 24.877 51.599 25.05 L 52.193 25.05 L 52.193 21.719 C 51.995 21.653 51.786 21.624 51.577 21.632 Z M 56.499 20.544 C 57.619 20.544 58.409 19.717 58.409 18.629 C 58.409 17.561 57.619 16.755 56.501 16.755 C 55.381 16.755 54.59 17.56 54.59 18.627 C 54.59 19.715 55.379 20.543 56.499 20.543 Z M 59.771 31.952 C 58.586 31.865 58.126 31.581 58.126 30.428 L 58.126 21.894 L 57.029 21.894 L 53.142 23.047 L 53.142 23.962 C 53.427 23.939 53.735 23.918 53.933 23.918 C 54.591 23.918 54.92 24.244 54.92 25.072 L 54.92 30.515 C 54.92 31.581 54.546 31.865 53.274 31.952 L 53.274 32.867 L 59.771 32.867 Z M 65.19 33.127 C 66.639 33.127 67.978 32.278 68.79 31.43 L 68.374 30.69 C 68.043 30.907 67.561 31.146 66.968 31.146 C 65.958 31.146 65.256 30.537 65.256 29.078 L 65.256 23.135 L 68.088 23.135 L 68.088 21.894 L 65.256 21.894 L 65.256 18.802 L 64.663 18.802 C 63.433 20.239 62.137 21.436 60.338 22.459 L 60.338 23.135 L 62.05 23.135 L 62.05 29.709 C 62.05 31.995 63.104 33.127 65.19 33.127 Z M 75.634 30.515 C 73.768 30.515 72.385 29.274 72.143 26.726 L 79.301 26.726 C 79.301 23.309 77.346 21.632 74.624 21.632 C 71.397 21.632 69.465 24.114 69.465 27.664 C 69.465 30.82 71.551 33.127 74.624 33.127 C 77.544 33.127 78.883 31.125 79.301 29.557 L 78.51 29.165 C 77.918 30.015 77.127 30.515 75.634 30.515 Z M 74.119 22.721 C 75.437 22.721 75.875 23.832 75.875 25.638 L 72.099 25.638 C 72.143 23.613 72.867 22.721 74.119 22.721 Z" fill="rgb(140,132,114)"></path></g></svg>